<?xml version="1.0" encoding="UTF-8"?>
<!DOCTYPE svg PUBLIC "-//W3C//DTD SVG 1.1//EN" "http://www.w3.org/Graphics/SVG/1.1/DTD/svg11.dtd">
<!-- Creator: CorelDRAW 2020 (64 Bit) -->
<svg xmlns="http://www.w3.org/2000/svg" xml:space="preserve" width="94.6877mm" height="18.6552mm" version="1.1" style="shape-rendering:geometricPrecision; text-rendering:geometricPrecision; image-rendering:optimizeQuality; fill-rule:evenodd; clip-rule:evenodd"
viewBox="0 0 642.3 126.54"
 xmlns:xlink="http://www.w3.org/1999/xlink"
 xmlns:xodm="http://www.corel.com/coreldraw/odm/2003">
 <defs>
  <style type="text/css">
   <![CDATA[
    .fil1 {fill:#262523}
    .fil0 {fill:#F01428;fill-rule:nonzero}
   ]]>
  </style>
 </defs>
 <g id="Camada_x0020_1">
  <metadata id="CorelCorpID_0Corel-Layer"/>
  <path class="fil0" d="M66.75 89.88c0,-4.06 2.11,-4.83 6.01,-2.65 7.17,4.01 14.66,8.15 14.66,8.15 0.25,-2.27 2.23,-4.18 6.54,-3.22 4.01,0.95 8.47,1.95 8.47,1.95 0,0 -2.41,-5.43 -3.48,-7.84 -1.99,-4.39 -0.09,-6.5 1.83,-7.1 0,0 -2.72,-1.85 -4.53,-3.11 -3.85,-2.71 -2.95,-5.33 0.81,-6.93 5.13,-2.18 11.51,-5.06 11.51,-5.06 -2.04,-1.18 -4.41,-4.52 -1.74,-8.37 2.6,-3.83 6.56,-9.16 6.56,-9.16 0,0 -6.94,0.04 -11.58,0 -4.2,-0.09 -5.24,-3.41 -5.18,-5.8 0,0 -6.84,4.85 -11.72,8.14 -4.11,2.76 -7.87,0.07 -7.24,-4.69 0.98,-7.45 1.86,-15.7 1.86,-15.7 -2.55,1.7 -6.89,1.65 -8.82,-2.51 -2.85,-6.17 -6.17,-13.34 -6.17,-13.34 0,0 -3.27,7.17 -6.12,13.34 -1.9,4.18 -6.27,4.22 -8.81,2.51 0,0 0.86,8.24 1.85,15.7 0.63,4.75 -3.13,7.45 -7.22,4.69 -4.89,-3.29 -11.74,-8.14 -11.74,-8.14 0.04,2.41 -0.97,5.73 -5.17,5.8 -4.66,0.04 -11.58,0 -11.58,0 0,0 3.95,5.31 6.59,9.16 2.64,3.85 0.25,7.19 -1.74,8.37 0,0 6.36,2.88 11.46,5.06 3.76,1.6 4.69,4.22 0.77,6.93 -1.78,1.25 -4.55,3.11 -4.55,3.11 1.97,0.62 3.83,2.71 1.86,7.1 -1.05,2.41 -3.48,7.84 -3.48,7.84 0,0 4.48,-1 8.49,-1.95 4.31,-0.97 6.31,0.95 6.54,3.22 0,0 7.45,-4.15 14.64,-8.15 3.88,-2.18 5.98,-1.39 5.99,2.65 0,3.18 0,10.04 0,10.04 0,5.8 -1.04,12.13 -3.25,15.52 -27.56,-3.02 -50.3,-25.03 -50.35,-54.06 -0.03,-29.9 24.97,-54.15 55.77,-54.15 30.79,0 55.75,24.25 55.75,54.13 0,27.93 -21.71,50.78 -49.55,53.8 0,0.95 0,5.85 0,7.33 32.73,-2.97 58.3,-29.21 58.3,-61.11 0,-33.9 -28.89,-61.37 -64.5,-61.37 -35.61,0 -64.47,27.47 -64.47,61.37 0,29.86 22.36,54.68 52.02,60.23 5.01,0.97 8.19,1.7 10.81,4.94 3.18,-5.8 3.9,-18.09 3.9,-25.01 0.02,0 0.02,-8.47 0.02,-11.65z"/>
  <path class="fil1" d="M186.06 111.31c-10.93,0 -17.18,-6.89 -17.18,-16.96 0,-11.04 5.71,-17.34 16.59,-17.34 4.74,0 9.53,0.7 14.54,2.15l0 -4.58c-4.15,-0.81 -9.1,-1.4 -14.43,-1.4 -14.76,0 -23.26,7.75 -23.26,21.11 0,13.41 8.83,21.11 23,21.11 4.95,0 10.82,-0.75 14.76,-2.15l0 -4.42c-4.25,1.67 -9.75,2.48 -14,2.48z"/>
  <path class="fil1" d="M242.14 102.54l5.44 11.85 6.89 0 -18.26 -40.17 -5.6 0 -18.47 40.17 4.58 0 5.28 -11.85 20.14 0zm-1.72 -3.88l-16.69 0 8.35 -18.63 8.35 18.63z"/>
  <path class="fil1" d="M268.6 74.21l0 40.17 6.19 0 0 -18.31 8.78 0 14.59 18.31 8.19 0 -15.83 -18.9c6.79,-1.94 9.43,-6.62 9.43,-10.93 0,-6.52 -4.31,-10.34 -12.49,-10.34l-18.85 0zm14.16 18.09l-7.97 0 0 -14.32 9.69 0c6.03,0 8.99,2.42 8.99,6.62 0,5.6 -3.56,7.7 -10.72,7.7z"/>
  <path class="fil1" d="M316.05 94.3c0,13.52 9.05,21.11 24.29,21.11 4.31,0 10.02,-0.86 15.83,-2.26l0 -17.23 -6.25 0 0 14.59c-2.64,0.65 -6.14,1.02 -8.51,1.02 -11.74,0 -18.79,-6.25 -18.79,-17.18 0,-11.09 6.3,-17.34 17.66,-17.34 5.98,0 10.82,1.13 15.73,2.48l0 -4.63c-4.52,-0.97 -9.91,-1.67 -15.73,-1.67 -15.02,0 -24.23,7.81 -24.23,21.11z"/>
  <path class="fil1" d="M370.5 94.24c0,12.92 8.72,21.54 22.78,21.54 14.65,0 23.37,-8.78 23.37,-21.65 0,-12.71 -8.72,-21.27 -23.05,-21.27 -14.22,0 -23.1,8.78 -23.1,21.38zm22.89 17.66c-9.59,0 -16.32,-6.52 -16.32,-17.66 0,-10.82 6.73,-17.5 16.53,-17.5 10.02,0 16.48,6.62 16.48,17.39 0,11.36 -6.46,17.77 -16.69,17.77z"/>
  <path class="fil1" d="M196.13 48.95l10.9 0 -17.4 -40.17 -10.67 0 -17.6 40.17 6.82 0 4.74 -10.77 18.55 0 4.67 10.77zm-13.88 -32.06l6.91 15.98 -13.93 0 7.01 -15.98z"/>
  <polygon class="fil1" points="219.55,8.76 219.55,48.93 228.98,48.93 228.98,8.76 "/>
  <path class="fil1" d="M249.6 8.78l0 40.15 8.8 0 0 -16.59 8.87 0 13.08 16.59 10.96 0 -14.82 -18.78c3.27,-1.57 4.11,-2.26 5.88,-4.3 1.78,-2.02 2.38,-4.6 2.24,-7.09 -0.36,-5.61 -5.02,-9.95 -15.46,-9.98l-19.56 0zm12.78 18.24l-3.98 0 0 -13.05 5.23 0c7.09,0 11.84,0.83 11.84,6.01 -0.01,5.29 -2.23,7.04 -13.09,7.04z"/>
  <path class="fil1" d="M316.87 28.82c-0.03,6.72 2.19,11.96 6.62,15.71 4.43,3.77 10.62,5.65 18.59,5.69 6.53,0.01 12.15,-0.87 16.64,-2.65l0 -6.25c-4.64,2 -10.02,3.02 -14.79,2.99 -5.3,-0.03 -9.45,-1.4 -12.42,-4.15 -2.98,-2.76 -4.46,-6.57 -4.46,-11.46 0.01,-5 1.42,-8.84 4.2,-11.54 2.8,-2.7 6.76,-4.05 11.89,-4.03 4.02,0 9.53,0.88 15.47,2.64l0.02 -6.59c-5.23,-1.07 -10.52,-1.6 -15.81,-1.6 -8.31,-0.02 -14.7,1.79 -19.2,5.47 -4.49,3.66 -6.74,8.92 -6.75,15.76z"/>
  <path class="fil1" d="M391.12 16.89l6.9 15.98 -13.92 0 7.01 -15.98zm-3.3 -8.11l-17.59 40.17 6.83 0 4.74 -10.77 18.54 0 4.68 10.77 10.9 0 -17.39 -40.17 -10.71 0z"/>
  <polygon class="fil1" points="436.93,18.94 463.1,48.93 472.96,48.93 472.96,8.78 465.31,8.78 465.3,37.45 440.15,8.79 429.31,8.79 429.31,48.96 436.93,48.96 "/>
  <path class="fil1" d="M504 8.78l-17.61 40.17 6.83 0 4.73 -10.77 18.56 0 4.66 10.77 10.91 0 -17.38 -40.17 -10.69 0zm3.27 8.11l6.93 15.98 -13.93 0 7 -15.98z"/>
  <path class="fil1" d="M545.3 8.78l0 40.15 18.53 0c7.07,0.02 12.59,-1.77 16.54,-5.43 3.95,-3.63 5.93,-8.79 5.97,-15.41 0,-6.19 -1.83,-10.99 -5.55,-14.29 -3.71,-3.31 -9.05,-5.02 -16.04,-5.02l-19.45 0zm9.41 34.43l0 -28.95 5.7 0.01c3.6,0.01 6.33,0.37 8.23,1.03 1.88,0.67 3.48,1.9 4.8,3.65 1.94,2.54 2.89,5.75 2.89,9.57 -0.02,4.95 -1.22,8.65 -3.66,11.07 -2.42,2.43 -6.09,3.63 -11,3.62l-6.96 -0.01z"/>
  <path class="fil1" d="M617.5 16.89l6.93 15.98 -13.92 0 6.99 -15.98zm-3.26 -8.11l-17.61 40.17 6.82 0 4.74 -10.77 18.55 0 4.66 10.77 10.91 0 -17.38 -40.17 -10.68 0z"/>
 </g>
</svg>
