<?xml version="1.0" encoding="UTF-8"?>
<!DOCTYPE svg PUBLIC "-//W3C//DTD SVG 1.1//EN" "http://www.w3.org/Graphics/SVG/1.1/DTD/svg11.dtd">
<!-- Creator: CorelDRAW 2020 (64 Bit) -->
<svg xmlns="http://www.w3.org/2000/svg" xml:space="preserve" width="12.1636mm" height="12.1636mm" version="1.1" style="shape-rendering:geometricPrecision; text-rendering:geometricPrecision; image-rendering:optimizeQuality; fill-rule:evenodd; clip-rule:evenodd"
viewBox="0 0 8.67 8.67"
 xmlns:xlink="http://www.w3.org/1999/xlink"
 xmlns:xodm="http://www.corel.com/coreldraw/odm/2003">
 <defs>
  <style type="text/css">
   <![CDATA[
    .fil0 {fill:#999999}
    .fil1 {fill:white}
   ]]>
  </style>
 </defs>
 <g id="Camada_x0020_1">
  <metadata id="CorelCorpID_0Corel-Layer"/>
  <path class="fil0" d="M8.66 2.13l0 4.4c0,1.17 -0.96,2.14 -2.13,2.14l-4.4 0c-1.17,0 -2.14,-0.96 -2.14,-2.13l-0 -4.4c-0,-1.17 0.96,-2.14 2.13,-2.14l4.4 -0c1.17,-0 2.14,0.96 2.14,2.13z"/>
  <path class="fil1" d="M0.38 6.48l-0 -4.34c-0,-0.23 0.04,-0.44 0.12,-0.64l2.43 2.43 -2.55 2.55zm0.3 -5.33c0.32,-0.47 0.85,-0.77 1.45,-0.77l4.4 -0c0.61,-0 1.14,0.31 1.46,0.78l-3.65 3.65 -3.65 -3.65zm7.49 0.35c0.08,0.2 0.12,0.41 0.12,0.63l0 4.35 -2.55 -2.55 2.43 -2.43zm0.07 5.46c-0.19,0.76 -0.88,1.33 -1.7,1.33l-4.4 0c-0.82,0 -1.52,-0.57 -1.71,-1.33l2.76 -2.76 1.14 1.14 1.14 -1.14 2.76 2.76zm-6.1 1.71l4.4 -0c1.17,-0 2.13,-0.96 2.13,-2.14l-0 -4.4c-0,-1.17 -0.96,-2.13 -2.14,-2.13l-4.4 0c-1.17,0 -2.13,0.96 -2.13,2.14l0 4.4c0,1.17 0.96,2.13 2.14,2.13z"/>
 </g>
</svg>
