<?xml version="1.0" encoding="UTF-8" standalone="no"?>
<!-- Created with Inkscape (http://www.inkscape.org/) -->

<svg
   xmlns:dc="http://purl.org/dc/elements/1.1/"
   xmlns:cc="http://creativecommons.org/ns#"
   xmlns:rdf="http://www.w3.org/1999/02/22-rdf-syntax-ns#"
   xmlns:svg="http://www.w3.org/2000/svg"
   xmlns="http://www.w3.org/2000/svg"
   xmlns:sodipodi="http://sodipodi.sourceforge.net/DTD/sodipodi-0.dtd"
   xmlns:inkscape="http://www.inkscape.org/namespaces/inkscape"
   width="300"
   height="298.29184"
   id="svg3929"
   version="1.1"
   inkscape:version="0.48.0 r9654"
   sodipodi:docname="New document 3">
  <defs
     id="defs3931" />
  <sodipodi:namedview
     id="base"
     pagecolor="#ffffff"
     bordercolor="#666666"
     borderopacity="1.0"
     inkscape:pageopacity="0.0"
     inkscape:pageshadow="2"
     inkscape:zoom="0.98994949"
     inkscape:cx="158.98621"
     inkscape:cy="187.1191"
     inkscape:document-units="px"
     inkscape:current-layer="layer1"
     showgrid="false"
     fit-margin-top="0"
     fit-margin-left="0"
     fit-margin-right="0"
     fit-margin-bottom="0"
     inkscape:window-width="1280"
     inkscape:window-height="750"
     inkscape:window-x="-8"
     inkscape:window-y="-8"
     inkscape:window-maximized="1" />
  <metadata
     id="metadata3934">
    <rdf:RDF>
      <cc:Work
         rdf:about="">
        <dc:format>image/svg+xml</dc:format>
        <dc:type
           rdf:resource="http://purl.org/dc/dcmitype/StillImage" />
        <dc:title></dc:title>
      </cc:Work>
    </rdf:RDF>
  </metadata>
  <g
     inkscape:label="Layer 1"
     inkscape:groupmode="layer"
     id="layer1"
     transform="translate(-269.70808,-289.77393)">
    <g
       transform="matrix(3.4561332,0,0,-3.4561332,125.78583,673.38505)"
       id="g3818">
      <g
         transform="translate(87.3638,89.6544)"
         id="g314">
        <path
           inkscape:connector-curvature="0"
           id="path316"
           style="fill:#d71920;fill-opacity:1;fill-rule:nonzero;stroke:none"
           d="m 0,0 c 0.275,0.26 3.188,2.821 3.486,3.173 0.395,0.448 1.34,1.591 1.34,3.382 0,0.418 0.012,9.039 0.012,9.424 0,1.413 0.65,2.2 0.986,2.574 0.352,0.389 1.455,1.34 1.737,1.593 L 6.648,20.157 C 6.389,19.919 3.217,17.052 2.904,16.753 2.443,16.313 1.813,15.188 1.813,13.591 l 0,-9.803 C 1.813,2.974 1.51,2.193 1.031,1.759 0.77,1.526 -0.822,0.074 -0.918,0 L 0,0 z" />
      </g>
      <g
         transform="translate(89.0552,70.7063)"
         id="g318">
        <path
           inkscape:connector-curvature="0"
           id="path320"
           style="fill:#d71920;fill-opacity:1;fill-rule:nonzero;stroke:none"
           d="m 0,0 -5.989,0 3.561,-3.11 2.385,0 c 2.424,0 4.639,1.038 6.106,2.498 1.46,1.462 1.998,3.431 1.998,5.262 l 0,5.1 c 0,1.718 -1.079,2.713 -1.373,3.012 -0.163,0.165 -1.206,1.14 -1.206,1.14 l 0,-3.912 c 0,0 1.145,-1.178 1.372,-1.418 C 7.912,7.453 7.896,5.402 4.553,2.146 3.969,1.573 2.295,0 0,0" />
      </g>
      <g
         transform="translate(100.0513,88.8244)"
         id="g322">
        <path
           inkscape:connector-curvature="0"
           id="path324"
           style="fill:#d71920;fill-opacity:1;fill-rule:nonzero;stroke:none"
           d="M 0,0 C 0.867,-1.381 0.271,-2.598 -1.074,-1.54 -1.477,-1.225 -2.5,-0.047 -2.5,-0.047 -1.049,0.896 -0.213,0.333 0,0 m -28.712,6.136 c 0,-0.6 -0.01,-4.45 0,-4.831 0.027,-1.289 0.953,-6.109 5.297,-6.109 l 12.503,0 c 0,0 0.037,-7.672 0.037,-7.998 0,-1.286 -0.42,-2.06 -0.787,-2.441 -0.326,-0.335 -2.014,-1.81 -2.014,-1.81 l 0.93,0 c 0.476,0.418 3.098,2.796 3.42,3.097 0.726,0.678 1.476,1.552 1.476,3.992 l 0,5.09 c 0,0 1.106,1.18 1.432,1.453 0.328,0.271 2.488,2.322 2.488,2.322 0,-2.895 2.014,-3.427 3.186,-2.307 0.463,0.428 1.93,1.783 2.262,2.099 1.021,1.009 1.586,4.135 -0.909,4.135 -1.228,0 -2.918,-1.769 -3.58,-2.369 -0.445,0.47 -0.941,1.04 -0.941,1.04 0,0 0.008,-1.894 0,-1.92 -0.541,-0.494 -1.229,-1.06 -1.988,-1.06 l -1.95,0 0,1.933 c 0,0.904 0.371,1.938 0.774,2.35 0.326,0.348 1.793,1.662 1.922,1.787 L -6.049,4.576 C -6.393,4.311 -9.428,1.537 -9.813,1.105 c -0.675,-0.762 -1.062,-2.204 -1.07,-2.586 0,0 -13.794,-0.014 -14.147,-0.014 -1.727,0 -2.922,1.724 -2.922,3.218 0,0.19 0.056,3.629 0.056,3.629 0,2.959 -0.773,3.269 -0.912,3.326 l -1.228,0 c 0.81,-0.414 1.324,-1.746 1.324,-2.542" />
      </g>
      <g
         transform="translate(77.8042,80.1672)"
         id="g326">
        <path
           inkscape:connector-curvature="0"
           id="path328"
           style="fill:#d71920;fill-opacity:1;fill-rule:nonzero;stroke:none"
           d="m 0,0 c 1.625,-1.627 2.174,-2.434 2.336,-3.169 0.121,0.125 2.307,1.94 2.307,2.622 0,0.999 -0.655,1.334 -2.252,2.937 L 0,0 z" />
      </g>
      <g
         transform="translate(78.269,93.6642)"
         id="g330">
        <path
           inkscape:connector-curvature="0"
           id="path332"
           style="fill:#d71920;fill-opacity:1;fill-rule:nonzero;stroke:none"
           d="m 0,0 c 0.137,0.14 4.254,4.377 4.254,4.377 0,0 2.351,-2.409 3.094,-3.717 C 7.713,0.034 8.116,-1.225 6.09,-1.225 l -7.467,0 C -0.768,-0.856 -0.652,-0.687 0,0 m -2.313,-4.28 6.635,0 c 0.408,0 0.946,0.078 1.461,0.539 0.276,0.249 2.058,2.041 2.236,2.228 0.343,0.392 0.474,0.781 0.474,1.281 0,0.234 -0.008,1.332 -0.008,2.512 0,2.457 -1.921,4.366 -1.921,4.366 0,0 0.393,0.299 0.42,1.334 0.004,0.288 0,2.591 0,2.591 0,0 0.791,-0.752 0.834,-1.065 0,0 0.845,0.864 1.396,1.414 0.613,0.622 -0.416,1.918 -0.891,2.396 -1.397,1.394 -1.385,2.845 -1.385,2.845 0,0 -0.434,-0.421 -1.625,-1.618 -0.645,-0.639 -0.459,-2.016 0.873,-3.352 0,0 0.005,-2.43 0.005,-3.338 0,-0.299 -0.283,-0.619 -0.283,-0.619 0,0 -1.914,1.745 -3.695,1.745 l -2.643,0 c -1.703,0 -3.041,-1.511 -3.177,-1.651 -0.881,-0.881 -0.909,-2.546 -0.17,-3.291 0.355,-0.351 1.83,-1.828 1.83,-1.828 0,0 -0.455,3.019 0,5.02 0.142,0.639 1.113,1.254 1.842,0.77 1.486,-1 3.746,-3.089 3.746,-3.089 0,0 -4.829,-5.045 -5.014,-5.238 -0.186,-0.183 -0.873,-0.695 -1.522,-0.708 -0.839,-0.009 -1.189,0.452 -1.525,0.842 0,0 -0.012,-2.253 -0.012,-2.455 0,-0.819 1.075,-1.631 2.119,-1.631" />
      </g>
      <g
         transform="translate(69.8433,84.2794)"
         id="g334">
        <path
           inkscape:connector-curvature="0"
           id="path336"
           style="fill:#d71920;fill-opacity:1;fill-rule:nonzero;stroke:none"
           d="m 0,0 0,-5.966 c 0,-3.875 3.201,-7.457 7.09,-7.457 l 3.252,0 c 1.941,0 2.629,0.472 3.804,1.515 0.438,0.385 0.997,1.017 1.202,1.244 0.673,0.759 1.403,1.371 1.403,3.367 l 0,1.955 c 0,1.69 -0.98,2.387 -1.448,2.859 -0.307,0.303 -1.135,1.093 -1.135,1.093 l 0,-3.993 c 0,0 0.818,-0.871 1.18,-1.157 1.688,-1.33 0.345,-3.648 -1.223,-3.648 -0.311,0 -6.695,-0.002 -7.129,-0.002 -2.744,0 -6.176,2.271 -6.176,6.214 l 0,3.238 c 0,3.325 -0.914,3.325 -0.914,3.325 l -1.222,0 C -1.316,2.587 0,1.866 0,0" />
      </g>
      <g
         transform="translate(72.9214,80.1622)"
         id="g338">
        <path
           inkscape:connector-curvature="0"
           id="path340"
           style="fill:#d71920;fill-opacity:1;fill-rule:nonzero;stroke:none"
           d="m 0,0 c 1.631,-1.624 2.182,-2.443 2.334,-3.18 0.127,0.128 2.314,1.941 2.314,2.625 0,1.002 -0.656,1.341 -2.257,2.941 L 0,0 z" />
      </g>
      <g
         transform="translate(52.5894,53.091)"
         id="g342">
        <path
           inkscape:connector-curvature="0"
           id="path344"
           style="fill:#d71920;fill-opacity:1;fill-rule:nonzero;stroke:none"
           d="m 0,0 c -0.389,0 -3.4,0.003 -3.82,0.003 -1.192,0 -1.102,1 -1.205,1.839 l 0,5.491 c 0,0 0.837,0.022 1.757,0.022 1.065,0 2.387,0.156 3.67,-0.568 0,0 -0.918,2.213 -3.677,2.213 l -1.75,0 0,1.081 0,0.68 c 0,0 0,1.538 -0.377,1.978 0,0 2.345,-0.01 2.506,-0.01 2.191,-0.006 3.888,0.03 5.652,-1.126 0,0 -0.338,2.884 -4.584,2.884 l -8.242,0 c 0,0 1.476,-1.228 1.384,-3.715 l 0.092,-9.977 c 0,-2.528 0.973,-2.569 0.973,-2.569 l 2.828,0 1.285,0 4.016,0 c 1.846,0 2.488,1.297 2.488,2.019 L 3.023,1.209 C 3.023,1.209 2.438,0 0,0" />
      </g>
      <g
         transform="translate(74.2026,53.9377)"
         id="g346">
        <path
           inkscape:connector-curvature="0"
           id="path348"
           style="fill:#d71920;fill-opacity:1;fill-rule:nonzero;stroke:none"
           d="m 0,0 0,6.975 c 0,2.717 -2.223,3.434 -3.869,3.434 -2.17,0 -2.828,-1.83 -3.104,-2.446 -0.492,1.69 -2.205,2.467 -3.599,2.467 -2.617,0 -3.293,-2.507 -3.293,-2.507 0,0 -0.063,2.414 -2.188,2.414 l -2.072,-0.004 c 0,0 1.193,-0.495 1.193,-2.583 L -16.934,0 c 0,-2.585 1.034,-2.608 1.034,-2.608 l 3.441,0 c -0.092,0.023 -1.32,0.958 -1.32,2.63 l 0,6.87 c 0.041,0.308 0.558,1.331 2.045,1.331 0.814,0 1.728,-0.86 1.709,-1.833 l -0.008,-6.388 c 0,-2.599 1.031,-2.61 1.031,-2.61 l 3.447,0 c 0,0 -1.324,0.922 -1.324,2.63 l -0.008,6.876 c 0.131,0.384 0.584,1.311 1.887,1.311 1.016,0 1.871,-0.863 1.852,-1.848 0,0 -0.012,-5.824 -0.008,-6.369 0.017,-2.61 1.021,-2.589 1.021,-2.589 1.799,0 3.453,-0.011 3.453,-0.011 C 1.318,-2.608 0,-1.699 0,0" />
      </g>
      <g
         transform="translate(80.1987,53.9415)"
         id="g350">
        <path
           inkscape:connector-curvature="0"
           id="path352"
           style="fill:#d71920;fill-opacity:1;fill-rule:nonzero;stroke:none"
           d="m 0,0 -0.014,0.016 0.01,7.426 c 0,2.899 -1.531,2.899 -2.262,2.899 l -2.05,0 c 0,0 1.187,-0.533 1.187,-2.576 l -0.002,-7.777 0,-0.014 c 0,-2.586 1.02,-2.575 1.02,-2.575 1.795,0 3.437,-0.011 3.437,-0.011 C 1.326,-2.612 0,-1.72 0,0" />
      </g>
      <g
         transform="translate(87.188,61.6349)"
         id="g354">
        <path
           inkscape:connector-curvature="0"
           id="path356"
           style="fill:#d71920;fill-opacity:1;fill-rule:nonzero;stroke:none"
           d="m 0,0 c 1.135,0.709 2.68,0.543 3.561,-0.521 l 0,2.18 c 0,0 -0.325,0.939 -1.756,0.939 -2.159,0 -2.682,-2.545 -2.682,-2.545 -0.178,2.01 -0.714,2.605 -2.206,2.605 L -5.167,2.655 c 0,0 1.205,-0.5 1.205,-2.584 L -3.968,-7.69 c 0,-2.583 1.035,-2.61 1.035,-2.61 l 3.41,0 c -0.092,0.027 -1.319,0.955 -1.319,2.627 l 0.004,6.351 C -0.75,-0.745 -0.459,-0.295 0,0" />
      </g>
      <g
         transform="translate(105.8579,67.2424)"
         id="g358">
        <path
           inkscape:connector-curvature="0"
           id="path360"
           style="fill:#d71920;fill-opacity:1;fill-rule:nonzero;stroke:none"
           d="m 0,0 c 0,0 -0.744,-1.315 -2.301,-2.571 -0.972,-0.806 -3.021,-1.79 -3.021,-1.79 l 2.181,-0.045 -0.002,-9.004 c 0,-2.491 1.045,-2.491 1.045,-2.491 1.881,0 3.401,-0.012 3.401,-0.012 0,0 -1.307,0.892 -1.307,2.531 L 0,-4.41 c 0.885,0 0.262,-0.006 0.828,-0.006 1.164,0 2.029,-0.505 2.029,-0.505 L 2.867,-2.96 0,-2.96 0,0 z" />
      </g>
      <g
         transform="translate(112.2622,57.1682)"
         id="g362">
        <path
           inkscape:connector-curvature="0"
           id="path364"
           style="fill:#d71920;fill-opacity:1;fill-rule:nonzero;stroke:none"
           d="M 0,0 C 0,0 -0.43,5.973 1.799,6.141 3.744,6.281 3.299,3.623 2.729,2.575 1.859,0.985 0.736,0.821 0,0 M 4.84,1.746 C 7.363,4.399 5.482,7.199 1.994,7.179 -1.533,7.161 -3.42,3.887 -3.42,0.367 c 0,-3.575 2.315,-6.216 5.658,-6.216 2.799,0 3.686,0.94 3.686,0.94 l 0.004,2.271 c -1.379,-2.387 -3.5,-1.708 -4.016,-1.47 -1.496,0.705 -1.697,2.694 -1.697,2.694 1.187,1.478 2.697,1.163 4.625,3.16" />
      </g>
      <g
         transform="translate(78.6069,68.4573)"
         id="g366">
        <path
           inkscape:connector-curvature="0"
           id="path368"
           style="fill:#d71920;fill-opacity:1;fill-rule:nonzero;stroke:none"
           d="m 0,0 c -0.889,0 -1.572,-0.705 -1.572,-1.573 0,-0.865 0.683,-1.551 1.572,-1.551 0.879,0 1.607,0.686 1.607,1.551 C 1.607,-0.705 0.879,0 0,0" />
      </g>
      <g
         transform="translate(126.7017,57.8371)"
         id="g370">
        <path
           inkscape:connector-curvature="0"
           id="path372"
           style="fill:#d71920;fill-opacity:1;fill-rule:nonzero;stroke:none"
           d="m 0,0 c -0.801,1.047 -2.24,1.821 -3.385,2.481 -1.549,0.9 -1.34,2.828 0.94,2.646 1.699,-0.138 2.424,-1.779 2.424,-1.779 l 0,2.155 c 0,0 -1.313,1.042 -3.299,1.042 -2.059,0 -3.891,-1.364 -3.834,-3.099 0.041,-1.533 0.666,-2.53 1.927,-3.446 0.495,-0.375 1.094,-0.733 1.776,-1.113 1.008,-0.549 1.375,-1.232 1.392,-1.873 0.03,-0.913 -0.791,-2.122 -2.531,-2.122 -1.711,0 -2.465,1.83 -2.465,1.83 l -0.009,-2.317 c 0,0 1.259,-0.913 3.244,-0.913 2.359,0 4.682,1.769 4.614,4.241 C 0.763,-1.388 0.466,-0.64 0,0" />
      </g>
      <g
         transform="translate(96.2993,53.55)"
         id="g374">
        <path
           inkscape:connector-curvature="0"
           id="path376"
           style="fill:#d71920;fill-opacity:1;fill-rule:nonzero;stroke:none"
           d="m 0,0 c -0.023,-0.019 -0.479,-0.745 -1.543,-0.745 -1.078,0 -1.812,0.582 -1.812,1.808 0,2.916 2.65,3.516 3.359,4.378 L 0,0 z m 3.109,0.388 0,0.002 0,7.261 c 0,1.749 -1.929,3.101 -3.976,3.101 -1.975,0 -3.219,-0.951 -3.219,-0.951 l 0,-2.253 c 0,0 0.707,1.785 2.488,1.785 1.477,0 1.918,-0.723 1.918,-1.452 0,-1.271 -1.082,-1.834 -1.783,-2.144 -2.045,-0.89 -4.658,-1.88 -4.658,-4.844 0,-1.992 1.443,-3.132 3.463,-3.132 1.553,0 2.33,0.807 2.719,1.559 0.236,-1.466 0.96,-1.529 0.96,-1.529 1.793,0 3.432,-0.012 3.432,-0.012 0,0 -1.344,0.908 -1.344,2.609" />
      </g>
      <path
         inkscape:connector-curvature="0"
         id="path378"
         style="fill:#231f20;fill-opacity:1;fill-rule:nonzero;stroke:none"
         d="m 127.46,46.251 -83.994,0 0,0.832 83.994,0 0,-0.832 z" />
      <g
         transform="translate(84.1226,42.0627)"
         id="g380">
        <path
           inkscape:connector-curvature="0"
           id="path382"
           style="fill:#d71920;fill-opacity:1;fill-rule:nonzero;stroke:none"
           d="M 0,0 C 2.06,-0.019 2.747,-1.699 2.931,-2.005 L 2.903,0.472 C 1.875,0.997 0.879,1.191 -0.08,1.191 c -3.912,0 -6.631,-2.734 -6.631,-7.73 0,-4.045 2.428,-7.053 6.297,-7.053 2.07,0 3.298,0.669 3.298,0.68 l 0.019,2.375 c -1.503,-2.322 -3.428,-1.887 -4.026,-1.614 -1.357,0.642 -2.518,3.07 -2.518,5.88 0,3.695 1.553,6.293 3.641,6.271" />
      </g>
      <g
         transform="translate(74.3237,40.1398)"
         id="g384">
        <path
           inkscape:connector-curvature="0"
           id="path386"
           style="fill:#d71920;fill-opacity:1;fill-rule:nonzero;stroke:none"
           d="m 0,0 -1.949,0 c 0.67,-0.409 0.31,-2.267 0.31,-2.267 0,0 0,-0.045 -1.646,-8.239 -0.223,-0.248 -0.401,-0.248 -0.401,-0.248 -1.009,0 -1.373,1.672 -1.574,2.624 -1.285,5.394 -1.355,5.888 -1.355,5.888 C -7.014,-0.521 -7.797,0 -8.371,0 l -2.246,0 c 0.918,-0.589 1.303,-2.242 1.303,-2.242 0,0 0.015,-0.025 1.339,-6.406 0.541,-2.52 1.944,-2.998 3.368,-2.998 0,0 0.785,0 1.117,0.31 -0.018,-0.137 -0.108,-0.516 -0.108,-0.516 0,0 -0.519,-2.127 -2.121,-2.993 l 3.076,0 c 1.229,0.558 1.61,2.369 1.61,2.369 0.449,1.995 2.092,9.717 2.146,10.184 C 1.4,-0.589 0.578,0 0,0" />
      </g>
      <g
         transform="translate(104.3149,40.3528)"
         id="g388">
        <path
           inkscape:connector-curvature="0"
           id="path390"
           style="fill:#d71920;fill-opacity:1;fill-rule:nonzero;stroke:none"
           d="M 0,0 C 0,0 -1.902,0 -2.365,-2.32 -2.5,-0.558 -3,-0.195 -4.313,-0.195 L -6.135,-0.22 c 1.063,-0.402 1.063,-2.24 1.063,-2.24 l 0,-6.898 c 0,0 0,-2.28 0.894,-2.28 l 3.018,0 c -0.09,0.025 -1.168,0.832 -1.168,2.298 l 0,5.812 c 0.115,0.755 0.293,0.87 0.74,1.161 0.979,0.631 2.342,0.475 3.131,-0.47 l 0,2.016 C 1.25,0 0,0 0,0" />
      </g>
      <g
         transform="translate(122.3579,29.7991)"
         id="g392">
        <path
           inkscape:connector-curvature="0"
           id="path394"
           style="fill:#d71920;fill-opacity:1;fill-rule:nonzero;stroke:none"
           d="m 0,0 c -1.211,0 -2.375,2.097 -2.375,4.74 0,2.593 1.164,4.73 2.375,4.73 1.232,0 2.426,-2.137 2.426,-4.73 C 2.426,2.097 1.232,0 0,0 m 0.047,10.515 c -2.854,0 -5.151,-2.645 -5.151,-5.913 0,-3.965 2.297,-5.93 5.151,-5.93 2.892,0 5.153,2.656 5.153,5.93 0,3.753 -2.261,5.913 -5.153,5.913" />
      </g>
      <g
         transform="translate(61.8433,32.7014)"
         id="g396">
        <path
           inkscape:connector-curvature="0"
           id="path398"
           style="fill:#d71920;fill-opacity:1;fill-rule:nonzero;stroke:none"
           d="m 0,0 c -0.5,1.386 -1.598,2.46 -3.49,2.393 0,0 4.65,3.224 4.416,5.039 l -2.612,0 C -1.422,5.453 -4.742,2.524 -4.742,2.524 l 0,5.174 c 0,1.714 -0.494,2.605 -1.49,2.605 l -2.192,0 c 1.02,-0.609 1.02,-2.784 1.02,-2.784 l 0,-9.512 c 0,0 0,-1.904 0.853,-1.993 l 2.862,0 c -1.053,0.61 -1.053,1.852 -1.053,1.852 l 0,3.681 c 1.252,0.846 2.119,-0.9 2.385,-2.125 0.738,-3.361 2.082,-3.384 2.461,-3.408 l 2.675,0 C 1.086,-3.421 0.463,-1.373 0,0" />
      </g>
      <g
         transform="translate(47.5972,38.5002)"
         id="g400">
        <path
           inkscape:connector-curvature="0"
           id="path402"
           style="fill:#d71920;fill-opacity:1;fill-rule:nonzero;stroke:none"
           d="m 0,0 c -0.936,0.559 -1.248,1.131 -1.248,1.689 0,0.57 0.082,1.873 2.34,1.873 0,0 2.094,-0.103 2.869,-2.241 L 3.943,3.589 C 2.488,4.754 0.277,4.754 0.277,4.754 c -2.572,0 -4.394,-1.546 -4.355,-3.504 0.025,-1.724 0.89,-2.96 3.357,-4.367 2.102,-1.18 2.817,-2.082 2.817,-3.1 0,-1.008 -0.75,-2.517 -3.231,-2.517 0,0 -2.008,-0.007 -2.918,2.184 l 0,-2.415 c 1.424,-1.042 3.666,-1.042 3.666,-1.042 2.633,0 5.227,1.841 5.227,4.65 C 4.84,-2.713 1.287,-0.742 0,0" />
      </g>
      <g
         transform="translate(112.9829,30.3479)"
         id="g404">
        <path
           inkscape:connector-curvature="0"
           id="path406"
           style="fill:#d71920;fill-opacity:1;fill-rule:nonzero;stroke:none"
           d="m 0,0 c -0.262,-0.624 -1.045,-0.624 -1.045,-0.624 -1.926,0 -2.775,1.926 -2.775,4.222 0,2.186 0.156,5.3 1.882,5.3 0,0 1.34,0 1.938,-1.82 L 0,0 z m 3.301,9.738 -2.44,0 c 0,0 -0.599,0 -0.738,-0.909 -0.633,1.137 -2.021,1.137 -2.021,1.137 -2.69,0 -4.77,-2.468 -4.77,-6.244 0,-3.234 1.971,-5.599 4.859,-5.599 1.547,0 1.854,0.958 1.854,1.076 0,-1.413 -0.459,-3.096 -2.238,-4.276 l 3.076,0 c 2.031,1.271 1.838,3.987 1.838,5.723 l 0,7.266 c 0,0 0,1.332 0.58,1.826" />
      </g>
      <g
         transform="translate(93.5474,30.629)"
         id="g408">
        <path
           inkscape:connector-curvature="0"
           id="path410"
           style="fill:#d71920;fill-opacity:1;fill-rule:nonzero;stroke:none"
           d="m 0,0 c -0.031,-0.037 -0.592,-0.816 -1.586,-0.816 -0.738,0 -1.506,0.592 -1.506,1.573 0,2.533 2.465,3.281 3.092,4.021 L 0,0 z m 2.723,0.355 0,6.404 c 0,1.525 -1.721,2.979 -3.5,2.979 0,0 -1.756,0 -2.844,-1.05 l 0,-2.047 c 0.799,1.783 2.203,1.783 2.203,1.783 1.285,0 1.713,-0.708 1.713,-1.391 0,-0.941 -0.516,-1.471 -1.279,-1.842 -1.815,-0.844 -4.479,-1.497 -4.479,-4.552 0,-1.738 1.467,-2.769 2.865,-2.769 2.069,0 2.635,1.493 2.647,1.558 0,0 0.197,-1.281 0.818,-1.35 l 3.026,0 c -1.17,0.771 -1.17,2.251 -1.17,2.277" />
      </g>
    </g>
  </g>
</svg>
