<?xml version="1.0" encoding="UTF-8"?>
<!DOCTYPE svg PUBLIC "-//W3C//DTD SVG 1.1//EN" "http://www.w3.org/Graphics/SVG/1.1/DTD/svg11.dtd">
<!-- Creator: CorelDRAW 2020 (64 Bit) -->
<svg xmlns="http://www.w3.org/2000/svg" xml:space="preserve" width="12.1692mm" height="12.1692mm" version="1.1" style="shape-rendering:geometricPrecision; text-rendering:geometricPrecision; image-rendering:optimizeQuality; fill-rule:evenodd; clip-rule:evenodd"
viewBox="0 0 14.55 14.55"
 xmlns:xlink="http://www.w3.org/1999/xlink"
 xmlns:xodm="http://www.corel.com/coreldraw/odm/2003">
 <defs>
  <style type="text/css">
   <![CDATA[
    .fil0 {fill:#3F51B5}
    .fil1 {fill:white}
   ]]>
  </style>
 </defs>
 <g id="Camada_x0020_1">
  <metadata id="CorelCorpID_0Corel-Layer"/>
  <path class="fil0" d="M2.48 0l9.59 0c1.37,0 2.48,1.11 2.48,2.48l0 9.59c0,1.37 -1.11,2.48 -2.48,2.48l-9.59 0c-1.37,0 -2.48,-1.11 -2.48,-2.48l0 -9.59c0,-1.37 1.11,-2.48 2.48,-2.48z"/>
  <path class="fil1" d="M0.63 12.07l0 -9.59c0,-1.02 0.83,-1.85 1.85,-1.85l9.59 0c1.02,0 1.85,0.83 1.85,1.85l0 9.59c0,1.02 -0.83,1.85 -1.85,1.85l-9.59 0c-1.02,0 -1.85,-0.83 -1.85,-1.85zm1.85 2.48l9.59 0c1.37,0 2.48,-1.11 2.48,-2.48l0 -9.59c0,-1.37 -1.11,-2.48 -2.48,-2.48l-9.59 0c-1.37,0 -2.48,1.11 -2.48,2.48l0 9.59c0,1.37 1.11,2.48 2.48,2.48z"/>
  <path class="fil1" d="M6.9 6.17l0 1.48 1.11 0 0 4.8 1.85 0 0 -4.8 1.24 0 0.23 -1.48 -1.48 0 0 -0.84c0,-0.41 0.04,-0.64 0.63,-0.64l0.84 0 0 -1.48 -1.26 0c-1.53,0 -2.06,0.77 -2.06,2.06l0 0.89 -1.11 0z"/>
 </g>
</svg>
