<?xml version="1.0" encoding="UTF-8"?>
<!DOCTYPE svg PUBLIC "-//W3C//DTD SVG 1.1//EN" "http://www.w3.org/Graphics/SVG/1.1/DTD/svg11.dtd">
<!-- Creator: CorelDRAW 2020 (64 Bit) -->
<svg xmlns="http://www.w3.org/2000/svg" xml:space="preserve" width="193.251mm" height="36.4602mm" version="1.1" style="shape-rendering:geometricPrecision; text-rendering:geometricPrecision; image-rendering:optimizeQuality; fill-rule:evenodd; clip-rule:evenodd"
viewBox="0 0 3594.7 678.2"
 xmlns:xlink="http://www.w3.org/1999/xlink"
 xmlns:xodm="http://www.corel.com/coreldraw/odm/2003">
 <defs>
  <style type="text/css">
   <![CDATA[
    .fil1 {fill:black;fill-rule:nonzero}
    .fil0 {fill:#45B8A9;fill-rule:nonzero}
   ]]>
  </style>
 </defs>
 <g id="Camada_x0020_1">
  <metadata id="CorelCorpID_0Corel-Layer"/>
  <g id="_2294126209344">
   <g>
    <path class="fil0" d="M1415.71 282.18c0,-153.97 116.23,-279.79 283.38,-279.79 102.45,0 164.16,34.15 214.48,83.28l-76.09 87.47c-41.94,-37.74 -84.48,-61.11 -139,-61.11 -91.66,0 -157.57,76.09 -157.57,168.35l0 1.2c0,92.86 64.7,170.15 157.57,170.15 62.31,0 100.05,-24.56 143.19,-63.51l76.09 76.69c-55.72,59.31 -118.03,96.46 -222.87,96.46 -159.96,0 -278.59,-122.82 -278.59,-277.99l-0 -1.2 -0.6 0zm637.46 146.78c0,31.75 26.36,50.33 64.7,50.33 55.12,0 92.26,-29.96 92.26,-72.49l0 -20.97c-20.37,-8.99 -46.73,-15.58 -75.49,-15.58 -50.33,0 -81.48,20.37 -81.48,57.51l0 1.2 0 0zm-78.48 -261.81c46.13,-20.37 91.07,-32.95 161.76,-32.95 64.7,0 110.84,16.77 140.79,46.13 31.15,31.15 44.93,76.69 44.93,132.4l0 240.24 -114.43 0 0 -44.93c-28.76,31.75 -68.3,52.72 -125.81,52.72 -78.48,0 -143.19,-44.93 -143.19,-127.01l0 -1.8c0,-90.47 68.9,-132.4 167.75,-132.4 41.94,0 72.49,7.19 101.85,16.77l0 -6.59c0,-48.53 -29.96,-76.09 -89.27,-76.09 -44.93,0 -76.69,8.39 -115.03,22.17l-29.36 -88.67 0 0zm521.23 54.52l0 -83.88 -118.03 0 0 414.59 118.03 0 0 -153.37c0,-98.85 47.93,-146.18 126.41,-146.18l5.99 0 0 -122.82c-2.99,0 -5.39,0 -7.79,0 -64.7,0.6 -101.25,36.55 -124.61,91.66l0 0zm765.07 124.62c0,61.11 44.33,114.43 109.64,114.43 67.7,0 107.84,-51.52 107.84,-112.63l0 -1.8c0,-61.11 -44.33,-114.43 -109.64,-114.43 -67.7,0 -107.84,51.52 -107.84,113.23l0 1.2 0 0zm-116.83 0c0,-119.22 96.46,-215.68 225.87,-215.68 128.81,0 224.67,95.26 224.67,214.48l0 1.8c0,119.22 -96.46,215.68 -225.87,215.68 -128.81,0 -224.67,-95.26 -224.67,-213.89l0 -2.4 0 0zm-367.86 -20.97c0,56.92 43.14,95.86 100.65,95.86 57.51,0 101.85,-39.54 101.85,-95.86l0 -1.8c0,-56.32 -44.33,-95.86 -101.85,-95.86 -57.51,0 -100.65,39.54 -100.65,95.86l0 1.8 0 0zm-118.03 -1.2c0,-123.42 89.27,-193.52 185.13,-193.52 64.7,0 102.45,26.96 134.2,62.31l0 -53.92 118.02 0 0 321.13c0,74.29 -17.97,128.21 -52.72,162.96 -34.15,34.15 -85.07,51.52 -152.77,55.12l-50.92 0c-58.71,-2.99 -113.23,-17.97 -159.96,-42.54l40.14 -88.07c42.54,23.96 85.07,37.74 140.19,37.74 80.88,0 118.63,-38.94 118.63,-112.63l0 -20.37c-34.75,41.94 -73.09,67.7 -136,67.7 -97.06,0 -185.13,-70.7 -185.13,-193.52l0 -2.4 1.2 0zm0 0l0 0 0 0z"/>
   </g>
   <path class="fil1" d="M577.55 8.39l236.05 548.79 -31.75 -0c-19.17,0 -44.33,-2.4 -85.07,-34.75 -50.92,-39.54 -239.65,-242.04 -239.65,-242.04 0,0 -8.99,-10.18 -25.76,-10.18l-78.49 0 1.2 2.99 77.88 283.98 -235.45 0 234.26 -549.39 146.78 0 0 0.6zm-577.55 549.39l153.37 0 0 -549.39 -153.37 0 0 549.39zm1074.22 -557.78c-170.15,0 -295.96,124.62 -295.96,283.98l0 1.2c0,165.96 128.21,282.78 298.96,282.78 99.45,0 180.33,-36.55 238.45,-84.48l0 -246.24 -252.83 -0 0 110.84 108.44 0 0 66.5c-22.77,14.98 -50.92,22.77 -88.07,22.77 -86.87,0 -149.18,-63.51 -149.18,-151.58l0 -1.2c0,-83.88 61.11,-149.78 140.19,-149.78 53.92,0 93.46,18.57 132.4,51.52l89.27 -107.24c-56.92,-49.73 -125.22,-79.08 -221.67,-79.08z"/>
  </g>
 </g>
</svg>
