<?xml version="1.0" encoding="UTF-8"?>
<!DOCTYPE svg PUBLIC "-//W3C//DTD SVG 1.1//EN" "http://www.w3.org/Graphics/SVG/1.1/DTD/svg11.dtd">
<!-- Creator: CorelDRAW 2020 (64 Bit) -->
<svg xmlns="http://www.w3.org/2000/svg" xml:space="preserve" width="12.1651mm" height="12.1642mm" version="1.1" style="shape-rendering:geometricPrecision; text-rendering:geometricPrecision; image-rendering:optimizeQuality; fill-rule:evenodd; clip-rule:evenodd"
viewBox="0 0 13.32 13.32"
 xmlns:xlink="http://www.w3.org/1999/xlink"
 xmlns:xodm="http://www.corel.com/coreldraw/odm/2003">
 <defs>
  <style type="text/css">
   <![CDATA[
    .fil2 {fill:white}
    .fil0 {fill:url(#id0);fill-rule:nonzero}
    .fil1 {fill:url(#id1);fill-rule:nonzero}
   ]]>
  </style>
  <radialGradient id="id0" gradientUnits="userSpaceOnUse" gradientTransform="matrix(2.0905 -0 -0 2.09076 -5 -14)" cx="4.66" cy="12.92" r="6.66" fx="4.66" fy="12.92">
   <stop offset="0" style="stop-opacity:1; stop-color:#FFDD55"/>
   <stop offset="0.329412" style="stop-opacity:1; stop-color:#FF543F"/>
   <stop offset="0.34902" style="stop-opacity:1; stop-color:#FC5245"/>
   <stop offset="0.509804" style="stop-opacity:1; stop-color:#E64771"/>
   <stop offset="0.639216" style="stop-opacity:1; stop-color:#D53E91"/>
   <stop offset="0.760784" style="stop-opacity:1; stop-color:#CC39A4"/>
   <stop offset="0.839216" style="stop-opacity:1; stop-color:#C837AB"/>
   <stop offset="1" style="stop-opacity:1; stop-color:#C837AB"/>
  </radialGradient>
  <radialGradient id="id1" gradientUnits="userSpaceOnUse" gradientTransform="matrix(1.71276 -0 -0 1.14137 -1 0)" cx="2" cy="-0.27" r="5.33" fx="2" fy="-0.27">
   <stop offset="0" style="stop-opacity:1; stop-color:#4168C9"/>
   <stop offset="1" style="stop-opacity:0; stop-color:#4168C9"/>
  </radialGradient>
 </defs>
 <g id="Camada_x0020_1">
  <metadata id="CorelCorpID_0Corel-Layer"/>
  <path class="fil0" d="M3.28 0.01l6.76 -0.01c1.81,-0 3.28,1.47 3.28,3.28l0.01 6.76c0,1.81 -1.47,3.28 -3.28,3.28l-6.76 0.01c-1.81,0 -3.28,-1.47 -3.28,-3.28l-0.01 -6.76c-0,-1.81 1.47,-3.28 3.28,-3.28z"/>
  <path class="fil1" d="M3.28 0.01l6.76 -0.01c1.81,-0 3.28,1.47 3.28,3.28l0.01 6.76c0,1.81 -1.47,3.28 -3.28,3.28l-6.76 0.01c-1.81,0 -3.28,-1.47 -3.28,-3.28l-0.01 -6.76c-0,-1.81 1.47,-3.28 3.28,-3.28z"/>
  <path class="fil2" d="M0.58 10.05l-0.01 -6.76c-0,-1.49 1.21,-2.7 2.7,-2.71l6.76 -0.01c1.49,-0 2.7,1.21 2.71,2.7l0.01 6.76c0,1.49 -1.21,2.7 -2.7,2.71l-6.76 0.01c-1.49,0 -2.7,-1.21 -2.71,-2.7zm2.71 3.28l6.76 -0.01c1.81,-0 3.28,-1.48 3.28,-3.28l-0.01 -6.76c-0,-1.81 -1.48,-3.28 -3.28,-3.28l-6.76 0.01c-1.81,0 -3.28,1.48 -3.28,3.28l0.01 6.76c0,1.81 1.48,3.28 3.28,3.28z"/>
  <path class="fil2" d="M2.27 4.63l0 4.05c0,1.3 1.06,2.36 2.36,2.36l4.05 0c1.3,0 2.36,-1.06 2.36,-2.36l0 -4.05c0,-1.3 -1.06,-2.36 -2.36,-2.36l-4.05 0c-1.3,0 -2.36,1.06 -2.36,2.36zm0.67 0c0,-0.93 0.76,-1.69 1.69,-1.69l4.05 0c0.93,0 1.69,0.76 1.69,1.69l0 4.05c0,0.93 -0.76,1.69 -1.69,1.69l-4.05 0c-0.93,0 -1.69,-0.76 -1.69,-1.69l0 -4.05z"/>
  <path class="fil2" d="M6.66 4.3c-1.3,0 -2.36,1.06 -2.36,2.36 0,1.3 1.06,2.36 2.36,2.36 1.3,0 2.36,-1.06 2.36,-2.36 0,-1.3 -1.06,-2.36 -2.36,-2.36zm-1.69 2.36c0,-0.93 0.76,-1.69 1.69,-1.69 0.93,0 1.69,0.76 1.69,1.69 0,0.93 -0.76,1.69 -1.69,1.69 -0.93,0 -1.69,-0.76 -1.69,-1.69z"/>
  <path class="fil2" d="M8.69 4.13c0,0.28 0.23,0.51 0.51,0.51 0.28,0 0.51,-0.23 0.51,-0.51 0,-0.28 -0.23,-0.51 -0.51,-0.51 -0.28,0 -0.51,0.23 -0.51,0.51z"/>
 </g>
</svg>
