<svg xmlns="http://www.w3.org/2000/svg" viewBox="0 0 61.46 27.75">
   <defs>
      <style>*{fill: #E6E6E6}</style>
   </defs>
   <g id="Camada_2" data-name="Camada 2">
      <g id="Camada_1-2" data-name="Camada 1">
         <path class="cls-1" d="M14.85,2.14V1.51h-.24V1.43h.57v.08h-.24v.63Zm.42,0V1.43h.14l.17.5,0,.11a1,1,0,0,1,0-.12l.18-.49H16v.71h-.09v-.6l-.21.6h-.08l-.21-.61v.61Z"/>
         <path class="cls-1" d="M57.83,8.71V8.08H57.6V8h.56v.09h-.24v.63Zm.42,0V8h.15l.16.51,0,.1,0-.11.17-.5h.12v.72h-.09v-.6l-.2.6h-.09l-.2-.61v.61Z"/>
         <path class="cls-1" d="M60.35,20.76v-.63h-.23v-.08h.56v.08h-.23v.63Zm.43,0v-.71h.14l.17.5a.81.81,0,0,0,0,.11l0-.12.17-.49h.13v.71h-.09v-.6l-.21.6h-.09l-.2-.61v.61Z"/>
         <path class="cls-2" d="M16.2,4.41a9.51,9.51,0,0,1-.63,4.42,6.55,6.55,0,0,1-1.09,1.56,1,1,0,0,1-.17.13l-1.15.93c-.4.26-.82.58-1.2.87a8,8,0,0,0-.93.82l-.44.49a7,7,0,0,0-.78,1.31,7.83,7.83,0,0,0-.29.9A10.14,10.14,0,0,0,9.28,19c0,.11,0,.13,0,.24v.1a2.29,2.29,0,0,1-.1.74,1.25,1.25,0,0,1-.65.69.6.6,0,0,1-.16.08l-.19.07a7.54,7.54,0,0,1-2.59.17l-1.45,0a2.36,2.36,0,0,0-1,.21,2.93,2.93,0,0,0,.21.39c.33.45,1.35,1,1.78.82l.1-.05a2.85,2.85,0,0,1,.59-.16l.82,0a5,5,0,0,1,.54,0,6.13,6.13,0,0,0,.76.07c.24,0,.55.05.76.08a9.51,9.51,0,0,0,1.6,0,4.51,4.51,0,0,0,.72-.12l.31-.1a5.85,5.85,0,0,0,.82-.44c0-.2-.06-.37-.06-.62a7.07,7.07,0,0,1,.17-1.72c.34-1.33,1.07-3.92,2.36-4.58.47-.24,1.18-.09,1.5-.59s0-2,0-2.21a3.39,3.39,0,0,1,.32-1,8.28,8.28,0,0,0,.09-1.23A3.59,3.59,0,0,1,17,8.37c.24-.36.34-.33.67-.12a1.37,1.37,0,0,1,.25.23c.49.49.31.75,1.1.84a2.51,2.51,0,0,1,1.46.41c.21.14.34.31.53.46a3.77,3.77,0,0,0,.57.38c.59.33.63.27.37,1-.1.27-.18.42-.47.51s-.48.17-.48.51c0,.53.42,2.12,1.1,2.17a7.07,7.07,0,0,0,.6-1.52A7.49,7.49,0,0,0,23,11.33l-.12-.93c-.05-.33-.14-.55-.21-.85C22.53,9,22.26,8.49,22.1,8c0-.12-.08-.25-.12-.38s-.07-.3-.11-.43,0-.14-.06-.21l-.09-.44a3.88,3.88,0,0,1-.06-.74,1.9,1.9,0,0,1,.14-.4,7,7,0,0,1,.86-1.28c.26-.35,1.23-1.55,1.23-2a4,4,0,0,0-.12-1,2.49,2.49,0,0,0-.39-.93c-.29-.32-.82.08-1.12.21L22.12.4,20.93,1c-.12.06-.14,0-.27,0a1.3,1.3,0,0,0-1,0,3.48,3.48,0,0,0-.63.18l-.29.12-.27.15a8.92,8.92,0,0,0-1.35,1.18l-.4.3c-.24.12-1.27.32-1.09.73l0,.06c.12.23.53.49.53.73Z"/>
         <path class="cls-2" d="M2.57,6.32a3.34,3.34,0,0,0,1,2.43A2.55,2.55,0,0,0,4,9.18c.08.07.07.1.18.12a.51.51,0,0,1-.06.27A14.72,14.72,0,0,0,3.31,14a7.77,7.77,0,0,1-1.07-.73,5.06,5.06,0,0,1-.85-.93,3.37,3.37,0,0,1-.38-.7c-.54-1.49.25-3.2,1-4.52A6.38,6.38,0,0,1,2.6,6.2c0,.08,0,.06,0,.12ZM8,10.47l-.6-.2a.66.66,0,0,1-.2-.07c-.35-.14-.73-.26-1.17-.47l-.36-.18A6.5,6.5,0,0,1,5,9.13C6,7,6.74,5.55,8.74,4.2A3.74,3.74,0,0,1,9,4.49,2.77,2.77,0,0,0,9.6,5a1.3,1.3,0,0,0,.36.2c0,.09-.09.15-.18.26A9.5,9.5,0,0,0,8.1,9.64L8,10.47ZM8.74,2c0,.07-.16.27-.24.5l-.07.2a2,2,0,0,0,0,.69c0,.12,0,.08.05.22a3.8,3.8,0,0,0-.68.45,11.56,11.56,0,0,0-3,3.81,1.54,1.54,0,0,0-.08.19l-.14.3a.47.47,0,0,1,0,.1,2,2,0,0,1-.09.22,3.81,3.81,0,0,1-.93-1.16,2.08,2.08,0,0,1-.12-.3A2.62,2.62,0,0,1,4,4.61a9.56,9.56,0,0,1,1.8-1.36l1.09-.58A8.2,8.2,0,0,1,8.74,2ZM0,11.6V13a3.85,3.85,0,0,0,.11.88c0,.12,0,.17.06.3a6.45,6.45,0,0,0,.27,1.07,10.59,10.59,0,0,0,2.22,3.83c.13.12.2.23.33.36l.34.34L3.5,20l.2.16a1.78,1.78,0,0,0,.51-.35c0-.14-.24-.26-.35-.35a4,4,0,0,1-.5-.51c-.07-.08-.11-.11-.18-.18A10.62,10.62,0,0,1,1.05,15,1.87,1.87,0,0,0,1,14.75a6.75,6.75,0,0,1-.25-1.12,10.82,10.82,0,0,1-.09-1.25l.24.38a5.35,5.35,0,0,0,.92,1l.35.29,1,.63c.21.12.19.12.22.34a5.91,5.91,0,0,0,.07.86c0,.16,0,.36.07.52.08.35.12.67.22,1a9.59,9.59,0,0,0,.31.95c.08.19.15.31.38.31a.33.33,0,0,0,.29-.3,4.59,4.59,0,0,0-.23-.72A9.61,9.61,0,0,1,4.08,16c0-.29-.08-.6-.08-.9a1.9,1.9,0,0,1,.37.12,11.38,11.38,0,0,0,3.21.87c.4,0,.44-.57,0-.65l-.29,0A12.58,12.58,0,0,1,5.9,15.1L5.4,15l-.12,0-.88-.34c-.54-.24-.43-.08-.43-.76a16.1,16.1,0,0,1,.77-4.06c.12,0,.58.35.72.42A10,10,0,0,0,8,11.09a17,17,0,0,0,.21,3c.08.45.05.72.5.72.18,0,.24-.22.24-.36a5.66,5.66,0,0,0-.14-.72,17,17,0,0,1-.16-2.5,9.08,9.08,0,0,0,2.36.25c.33-.21.12-.59-.24-.61a12.53,12.53,0,0,1-2.09-.29c0-.12,0-.25.06-.36.07-1,.89-4,1.88-4.68l.31.1a3.4,3.4,0,0,0,.64.2l.35.07a8.19,8.19,0,0,0,1.68.16c.41,0,.51-.66-.17-.65a5.39,5.39,0,0,1-.85-.06A5,5,0,0,1,11.1,5,4.46,4.46,0,0,1,13.49,3.9l0-.54a5.54,5.54,0,0,0-2.34.84c-.29.19-.6.49-.72.57-.29-.19-1-.57-1.1-.93.14,0,.55-.24.77-.3l.29-.09c.18-.05.83-.12.94-.17.32-.15.21-.6-.21-.6A4.47,4.47,0,0,0,10,2.9a4.43,4.43,0,0,0-.93.38c0-.81.22-1,.77-1.47.41-.31,2.85-.08,3.58,0a4,4,0,0,0,.69.12c0-.11,0-.06.08-.13l.31-.38C13.3.86,10.32,1,9.18,1.27A13.83,13.83,0,0,0,6.81,2,11.49,11.49,0,0,0,1.94,6,10.18,10.18,0,0,0,.39,9.25c0,.27-.16.54-.2.81A9.68,9.68,0,0,0,0,11.6Z"/>
         <path class="cls-2" d="M18.64,12.32a4.28,4.28,0,0,0,.05.87,4.77,4.77,0,0,1,0,.53c-.27-.2-.39-1-.54-1.4a1.78,1.78,0,0,0-.33-.66,1.19,1.19,0,0,0-.56-.42c-.16.14-.12,0-.12.57a4.68,4.68,0,0,0,.36.93,1.4,1.4,0,0,0,.09.17,5,5,0,0,1,.6,1.26c.06.18-.05.05-.1.37-.13.76.25,1.17,0,1.42-1.23,1.74-2.74,2.67-2.21,4.92-.09-.06,0-.06-.15-.09a2.35,2.35,0,0,0-.21.72.54.54,0,0,0,0,.22c.07.23-.08.06.06.36.05.11,0,.07.11.15a1,1,0,0,0,.92.34c.15,0,.14-.08.29-.12.44.29.3.24,1,.24.15,0,.16-.05.33-.06.46,0,.73-.13,1.43-.18.17,0,.14,0,.28.07.58.44.75.12,1,.11.51,0,.39-.1.47-.31s.07-.09.06-.19-.35-.4-.6-.45a4.14,4.14,0,0,0-.92.08,1.76,1.76,0,0,1-.47,0l0,0,.05,0,.09-.09c.19-.2,0-.09.35-.34a1.83,1.83,0,0,0,.62-.76,1.12,1.12,0,0,0,0-.33.6.6,0,0,0,.43.2c.2,0,.57-.12.31-.46s-.07-.43-.39-.68c-1.28-1-.3-1.51-.9-2.48s0-.56.5-1.14c.06-.07,0,0,.1-.1.28-.24-.07-.49-.34-.92a1.2,1.2,0,0,0-.15-.24c-.12-.15-.19-.3-.38-.39a1.55,1.55,0,0,0-.64-.14,3.76,3.76,0,0,0,.09-2.24,1.25,1.25,0,0,0-.33-.66c-.32.09-.36,1.06-.36,1.38Z"/>
         <path class="cls-2" d="M28,2.17c0,.23.06.19.22.29a1.19,1.19,0,0,0,.76.26l2.21.38c-.08.13-.1.1-.26.15l-.35.1c-.79.22-.7.25-1.41-.08l-1.46-.71a.66.66,0,0,0-.7,0l-.35.09c0,.16.95,1.35,1,1.49a4.92,4.92,0,0,0-1,.07.9.9,0,0,1-.28.08c0,.17,0,.09.38.16l.71.13c.07,0,0,.09.13.14a14.55,14.55,0,0,0,2.06,0l.8,0h.09a13.06,13.06,0,0,0,2.49-.4A6.09,6.09,0,0,0,34,4c0,.25.09.3.33.3s.82-.07.88-.28a.89.89,0,0,0-.08-.31l.15-.06.09.24c.08.12.24.09.5.05l.59-.16c.11,0,.12,0,.15-.12s-.07-.27-.08-.4l.3-.09.93-.3.62-.18c.2-.05.42-.15.61-.2a6.52,6.52,0,0,0,.83-.36l.51-.29.25-.17c.63-.46.45-.75-.38-.8a1.57,1.57,0,0,1-.42-.08c-.55-.15-.36-.1-.79,0a17,17,0,0,0-1.74.43l-.65.21a19.88,19.88,0,0,0-1.85.75l-1.32.41a.93.93,0,0,1-.3,0c-.39,0-1.12,0-1.64-.08l-2.74-.3c-.33-.07-.24-.16-.69-.06ZM26,7.28l1-.2c.17,0,.33-.06.49-.11l.49-.1.7-.17.26,0L31.83,6A.76.76,0,0,0,32,6L32.88,5c.06-.06.14-.11.09-.16s-1.66.54-1.74.56l-.65.22-.22.08L29.48,6l-2.62.9L26.63,7l-.34.1-.11.05c-.13,0-.13,0-.17.13ZM22.7,6.92c.16,0,1.21-.24,1.44-.29l.71-.16.72-.17.36-.06.36-.09L27,6c.16,0,.15,0,.26-.15l.42-.48c.08-.08.17-.12.18-.26l-1.95.65-.33.11-.15.06L25.28,6,23,6.76c-.23.06-.25,0-.29.16ZM11.54,8.65a5.23,5.23,0,0,0,.75-.15l1.54-.34a1.25,1.25,0,0,0,.26-.07c.19,0,.34-.06.52-.11s.13,0,.2-.1.39-.42.4-.54-1.8.61-2.07.7L12,8.43c-.19.07-.37.06-.42.22Z"/>
         <path class="cls-1" d="M25.1,8.27h2.5V19.21H25.1V8.27Zm4.73,0H33A4.17,4.17,0,0,1,35.62,9a3,3,0,0,1,1.08,2.23,2.86,2.86,0,0,1-1,2.57,4.46,4.46,0,0,1-2.76.91,3.56,3.56,0,0,0-.58-.05v4.51h-2.5V8.27Zm2.5,1.78v2.89a2.2,2.2,0,0,0,1.41-.32,1.41,1.41,0,0,0,.44-1.17c0-.93-.51-1.4-1.52-1.4ZM40,8.27h2.6l3,10.94H42.94l-.48-1.85H40l-.47,1.85H37L40,8.27Zm2.15,7.37-.92-4.57h0l-.82,4.57Zm3.37-7.37h6.38v2h-2v8.92H47.44V10.29h-2v-2Zm9.25,0h2.6l3,10.94H57.72l-.49-1.85h-2.5l-.47,1.85H51.8L54.73,8.27Zm2.15,7.37L56,11.07h0l-.81,4.57Z"/>
         <path class="cls-1" d="M25.08,20.48h1.1v.28h-.37V23h-.34V20.76h-.39v-.28Zm1.65,0h.33v1h.5v-1h.33V23h-.33V21.74h-.5V23h-.33V20.48Zm1.94,0h.89v.28H29v.79h.51v.28H29v.85h.57V23h-.89V20.48ZM30.86,23V20.48h.45a.55.55,0,0,1,.45.16.76.76,0,0,1,.15.48.75.75,0,0,1-.17.58.65.65,0,0,1-.48.17h-.07V23Zm.33-1.38a.33.33,0,0,0,.27-.08.37.37,0,0,0,.1-.31.56.56,0,0,0-.09-.35.31.31,0,0,0-.28-.09v.83Zm1.33-1.11h.89v.28h-.56v.79h.5v.28h-.5v.85h.56V23h-.89V20.48Zm1.31,0h1.09v.28h-.37V23h-.34V20.76h-.38v-.28Zm2.3,2.07a.73.73,0,0,0,.32.14.31.31,0,0,0,.23-.12.32.32,0,0,0,.06-.28.62.62,0,0,0-.09-.26l-.24-.26a1.87,1.87,0,0,1-.24-.27.54.54,0,0,1-.11-.28.79.79,0,0,1,.11-.57.5.5,0,0,1,.42-.2.86.86,0,0,1,.36.08v.33a.39.39,0,0,0-.27-.1.29.29,0,0,0-.22.09.4.4,0,0,0-.08.26.31.31,0,0,0,.07.21l.25.27a2.46,2.46,0,0,1,.27.33.76.76,0,0,1,.11.34.74.74,0,0,1-.16.56.6.6,0,0,1-.44.18.56.56,0,0,1-.35-.11v-.34Zm1.57-2.07H38v1h.5v-1h.34V23h-.34V21.74H38V23H37.7V20.48Zm2.26,0V23h-.33V20.48ZM40.74,23V20.48h.45a.54.54,0,0,1,.44.16.66.66,0,0,1,.15.48.79.79,0,0,1-.16.58.69.69,0,0,1-.48.17h-.07V23Zm.33-1.38a.33.33,0,0,0,.27-.08.41.41,0,0,0,.09-.31.65.65,0,0,0-.08-.35.32.32,0,0,0-.28-.09v.83ZM42.4,23V20.48h.45a.54.54,0,0,1,.44.16.76.76,0,0,1,.15.48.75.75,0,0,1-.17.58.64.64,0,0,1-.47.17h-.08V23Zm.32-1.38a.36.36,0,0,0,.28-.08.41.41,0,0,0,.09-.31.56.56,0,0,0-.09-.35.31.31,0,0,0-.28-.09v.83Zm1.66-1.11V23h-.33V20.48ZM45.16,23V20.48h.31l.59,1.89h0q0-.2,0-.36c0-.12,0-.24,0-.38s0-.28,0-.42v-.72h.33V23H46l-.58-1.92h0c0,.23,0,.4,0,.52s0,.26,0,.4v1Zm2.53-1.31h.6V22a2.12,2.12,0,0,1-.06.62.61.61,0,0,1-.2.32.57.57,0,0,1-.32.09.53.53,0,0,1-.43-.16.86.86,0,0,1-.2-.45,5.63,5.63,0,0,1,0-.79,3.58,3.58,0,0,1,.07-.69.69.69,0,0,1,.21-.36.6.6,0,0,1,.39-.1.57.57,0,0,1,.57.5l-.32.13a.34.34,0,0,0-.1-.24.23.23,0,0,0-.19-.09c-.11,0-.19.07-.23.22a3.78,3.78,0,0,0-.06.69,4.89,4.89,0,0,0,.06.74.45.45,0,0,0,.1.23.19.19,0,0,0,.15.06q.27,0,.27-.57v-.18h-.27v-.28Zm2-1.18h.89v.28H50v.79h.51v.28H50v.85h.57V23h-.89V20.48ZM51.06,23l.47-1.27-.43-1.22h.33c0,.12.07.22.11.32s.07.19.1.3.06.21.08.28h0q.09-.36.27-.9h.33l-.46,1.22L52.32,23H52a2.44,2.44,0,0,0-.12-.35l-.11-.33a1,1,0,0,1,0-.25h0a.72.72,0,0,1,0,.24c0,.11-.11.34-.22.69ZM53,23V20.48h.45a.55.55,0,0,1,.45.16.76.76,0,0,1,.15.48.79.79,0,0,1-.17.58.65.65,0,0,1-.48.17H53.3V23Zm.33-1.38a.33.33,0,0,0,.27-.08.37.37,0,0,0,.1-.31.56.56,0,0,0-.09-.35.31.31,0,0,0-.28-.09v.83Zm1.33-1.11h.89v.28H55v.79h.5v.28H55v.85h.56V23h-.89V20.48ZM56.15,23V20.48h.45a.52.52,0,0,1,.4.13.65.65,0,0,1,.16.41,1.35,1.35,0,0,1,0,.35.85.85,0,0,1-.12.27.3.3,0,0,1-.2.12L57.28,23h-.34l-.45-1.22h0V23Zm.33-1.39c.22,0,.34-.13.34-.42a.58.58,0,0,0-.07-.28.23.23,0,0,0-.22-.12h-.05v.82Zm1.14-1.1h1.1v.28h-.37V23H58V20.76h-.39v-.28Zm1.63,2.07a.68.68,0,0,0,.32.14.31.31,0,0,0,.23-.12.4.4,0,0,0,.06-.28.62.62,0,0,0-.09-.26l-.24-.26a1.87,1.87,0,0,1-.24-.27.65.65,0,0,1-.12-.28.84.84,0,0,1,.12-.57.5.5,0,0,1,.42-.2.86.86,0,0,1,.36.08v.33a.39.39,0,0,0-.27-.1.29.29,0,0,0-.22.09.4.4,0,0,0-.08.26.31.31,0,0,0,.07.21l.24.27a2,2,0,0,1,.28.33.65.65,0,0,1,.1.34.7.7,0,0,1-.16.56.58.58,0,0,1-.43.18.56.56,0,0,1-.35-.11v-.34Z"/>
         <path class="cls-1" d="M.47,27.07V24.65H.7v2.42Zm.6,0V25.32h.2v.25a.48.48,0,0,1,.17-.22.37.37,0,0,1,.23-.07.32.32,0,0,1,.19,0,.38.38,0,0,1,.14.11.84.84,0,0,1,.08.19,2.93,2.93,0,0,1,0,.36v1.08H1.89V26a1,1,0,0,0,0-.29.25.25,0,0,0-.09-.13.2.2,0,0,0-.15-.05.27.27,0,0,0-.24.13.78.78,0,0,0-.09.44v1Zm1.84-.26,0,.26-.16,0a.35.35,0,0,1-.18-.05.22.22,0,0,1-.09-.14,1.33,1.33,0,0,1,0-.35v-1H2.32v-.23h.16v-.44l.21-.18v.62h.22v.23H2.69v1a.62.62,0,0,0,0,.18.11.11,0,0,0,.11.06ZM4,26.51l.22,0A.79.79,0,0,1,4,27a.48.48,0,0,1-.36.14.52.52,0,0,1-.44-.23,1.48,1.48,0,0,1,0-1.36.48.48,0,0,1,.83,0,1.2,1.2,0,0,1,.17.68v.08h-1a.86.86,0,0,0,.12.45.31.31,0,0,0,.26.15c.16,0,.28-.12.34-.36ZM3.27,26H4a.69.69,0,0,0-.09-.34.3.3,0,0,0-.26-.17.31.31,0,0,0-.25.14.74.74,0,0,0-.11.37Zm1.2,1V25.32h.19v.27a.75.75,0,0,1,.14-.25.2.2,0,0,1,.14-.06.37.37,0,0,1,.22.09l-.07.28a.29.29,0,0,0-.16-.06.18.18,0,0,0-.12.05.28.28,0,0,0-.08.15,1.5,1.5,0,0,0,0,.37v.91Zm.81,0V25.32h.2v.25a.48.48,0,0,1,.17-.22.37.37,0,0,1,.23-.07.32.32,0,0,1,.19,0,.38.38,0,0,1,.14.11.84.84,0,0,1,.08.19,2.93,2.93,0,0,1,0,.36v1.08H6.1V26a1,1,0,0,0,0-.29A.25.25,0,0,0,6,25.59a.2.2,0,0,0-.15-.05.27.27,0,0,0-.24.13.78.78,0,0,0-.09.44v1Zm2.19-.21a.8.8,0,0,1-.23.19.48.48,0,0,1-.24.06A.37.37,0,0,1,6.69,27a.53.53,0,0,1-.12-.37.76.76,0,0,1,0-.27.4.4,0,0,1,.16-.18.61.61,0,0,1,.29-.1,1.55,1.55,0,0,0,.38-.1v-.08a.49.49,0,0,0,0-.25.31.31,0,0,0-.25-.11.34.34,0,0,0-.22.07.49.49,0,0,0-.11.27l-.22-.05a.63.63,0,0,1,.19-.4.53.53,0,0,1,.39-.13.54.54,0,0,1,.31.08.38.38,0,0,1,.15.21,1.77,1.77,0,0,1,0,.37v.4c0,.28,0,.45,0,.52a.83.83,0,0,0,.06.21H7.51a.65.65,0,0,1,0-.21Zm0-.67a1,1,0,0,1-.35.11.5.5,0,0,0-.19.07.24.24,0,0,0-.08.09.32.32,0,0,0,0,.14.26.26,0,0,0,.07.2.2.2,0,0,0,.19.08.31.31,0,0,0,.2-.07.32.32,0,0,0,.14-.18.71.71,0,0,0,0-.33v-.11Zm1,.62,0,.26-.16,0a.3.3,0,0,1-.18-.05.28.28,0,0,1-.1-.14,2.39,2.39,0,0,1,0-.35v-1H7.89v-.23h.16v-.44l.21-.18v.62h.22v.23H8.26v1a.62.62,0,0,0,0,.18.11.11,0,0,0,.11.06ZM8.68,25v-.34H8.9V25Zm0,2.08V25.32H8.9v1.75Zm.46-.87a1.19,1.19,0,0,1,.17-.69.51.51,0,0,1,.43-.23.52.52,0,0,1,.42.23,1.16,1.16,0,0,1,.17.67,1.2,1.2,0,0,1-.17.7.48.48,0,0,1-.42.23.51.51,0,0,1-.43-.23,1.15,1.15,0,0,1-.17-.68Zm.22,0a1,1,0,0,0,.11.5.29.29,0,0,0,.53,0,1,1,0,0,0,.11-.5,1,1,0,0,0-.11-.51.29.29,0,0,0-.53,0,1,1,0,0,0-.11.51Zm1.22.87V25.32h.2v.25a.48.48,0,0,1,.17-.22.35.35,0,0,1,.23-.07.32.32,0,0,1,.19,0,.35.35,0,0,1,.13.11.41.41,0,0,1,.08.19,1.6,1.6,0,0,1,0,.36v1.08H11.4V26a1,1,0,0,0,0-.29.25.25,0,0,0-.09-.13.21.21,0,0,0-.15-.05.27.27,0,0,0-.24.13.78.78,0,0,0-.09.44v1Zm2.19-.21a1,1,0,0,1-.23.19.53.53,0,0,1-.24.06A.41.41,0,0,1,12,27a.58.58,0,0,1-.11-.37.59.59,0,0,1,.05-.27.45.45,0,0,1,.15-.18.66.66,0,0,1,.29-.1,1.52,1.52,0,0,0,.39-.1v-.08a.4.4,0,0,0-.06-.25.28.28,0,0,0-.24-.11.32.32,0,0,0-.22.07.49.49,0,0,0-.11.27l-.22-.05a.68.68,0,0,1,.18-.4.57.57,0,0,1,.4-.13.54.54,0,0,1,.31.08.38.38,0,0,1,.15.21,1.77,1.77,0,0,1,0,.37v.4c0,.28,0,.45,0,.52a1.6,1.6,0,0,0,0,.21h-.22a.65.65,0,0,1,0-.21Zm0-.67a1.11,1.11,0,0,1-.35.11.5.5,0,0,0-.19.07.18.18,0,0,0-.08.09.32.32,0,0,0,0,.14.3.3,0,0,0,.06.2.22.22,0,0,0,.19.08.31.31,0,0,0,.21-.07.37.37,0,0,0,.14-.18.87.87,0,0,0,.05-.33v-.11Zm.54.88V24.65h.22v2.42Zm1.26,0V24.65h.66a.9.9,0,0,1,.34.05.47.47,0,0,1,.25.23.87.87,0,0,1,.09.42.9.9,0,0,1-.15.53.58.58,0,0,1-.51.21h-.45v1Zm.23-1.27h.46a.42.42,0,0,0,.31-.11.5.5,0,0,0,.1-.33.62.62,0,0,0-.05-.25.28.28,0,0,0-.12-.14.63.63,0,0,0-.25,0h-.45v.87Zm2.24.71.22,0A.87.87,0,0,1,17,27a.48.48,0,0,1-.36.14.5.5,0,0,1-.44-.23,1.14,1.14,0,0,1-.16-.67,1.21,1.21,0,0,1,.16-.69.52.52,0,0,1,.43-.24.5.5,0,0,1,.41.23,1.2,1.2,0,0,1,.17.68v.08H16.3a.86.86,0,0,0,.12.45.31.31,0,0,0,.26.15c.16,0,.27-.12.34-.36ZM16.31,26H17a.69.69,0,0,0-.09-.34.31.31,0,0,0-.26-.17.31.31,0,0,0-.25.14.65.65,0,0,0-.11.37Zm1.68.78,0,.26-.16,0a.3.3,0,0,1-.18-.05.28.28,0,0,1-.1-.14,2.39,2.39,0,0,1,0-.35v-1H17.4v-.23h.16v-.44l.21-.18v.62H18v.23h-.22v1a.62.62,0,0,0,0,.18.1.1,0,0,0,.1.06Zm1.7.05a.77.77,0,0,1-.22.19.53.53,0,0,1-.24.06.41.41,0,0,1-.32-.13.53.53,0,0,1-.12-.37.6.6,0,0,1,.06-.27.45.45,0,0,1,.15-.18.61.61,0,0,1,.29-.1,1.52,1.52,0,0,0,.39-.1v-.08a.4.4,0,0,0-.06-.25.28.28,0,0,0-.24-.11.37.37,0,0,0-.23.07.57.57,0,0,0-.11.27l-.21-.05a.68.68,0,0,1,.18-.4.55.55,0,0,1,.4-.13.57.57,0,0,1,.31.08.36.36,0,0,1,.14.21,1.77,1.77,0,0,1,0,.37v.4a4.55,4.55,0,0,0,0,.52.8.8,0,0,0,.05.21h-.22a1.08,1.08,0,0,1,0-.21Zm0-.67a1.11,1.11,0,0,1-.35.11.44.44,0,0,0-.19.07.2.2,0,0,0-.09.09.32.32,0,0,0,0,.14.3.3,0,0,0,.07.2.22.22,0,0,0,.19.08.31.31,0,0,0,.21-.07.37.37,0,0,0,.14-.18.87.87,0,0,0,.05-.33v-.11Zm.55.88V25.32h.19v.25a.56.56,0,0,1,.17-.22.39.39,0,0,1,.23-.07.32.32,0,0,1,.19,0,.38.38,0,0,1,.14.11.84.84,0,0,1,.08.19,1.73,1.73,0,0,1,0,.36v1.08H21V26a1,1,0,0,0,0-.29.25.25,0,0,0-.09-.13.19.19,0,0,0-.14-.05.29.29,0,0,0-.25.13.78.78,0,0,0-.09.44v1Zm2.18,0v-.22a.53.53,0,0,1-.15.2.36.36,0,0,1-.2.06.47.47,0,0,1-.39-.24,1.17,1.17,0,0,1-.16-.67,1.53,1.53,0,0,1,.07-.51.71.71,0,0,1,.19-.31.44.44,0,0,1,.28-.1.33.33,0,0,1,.19.06.54.54,0,0,1,.15.18v-.87h.22v2.42Zm-.68-.87a.94.94,0,0,0,.1.5.3.3,0,0,0,.24.17.27.27,0,0,0,.24-.16.86.86,0,0,0,.1-.48,1.08,1.08,0,0,0-.1-.54.3.3,0,0,0-.25-.17.27.27,0,0,0-.23.17,1,1,0,0,0-.1.51Zm1.6.87L24,24.65h.25L25,27.07H24.7l-.2-.73h-.74l-.19.73Zm.5-1h.6l-.19-.67-.12-.51a3.94,3.94,0,0,1-.1.47l-.19.71Zm1.29,1V25.32h.19v.25a.67.67,0,0,1,.17-.22.39.39,0,0,1,.23-.07.32.32,0,0,1,.19,0,.31.31,0,0,1,.14.11.54.54,0,0,1,.08.19,1.6,1.6,0,0,1,0,.36v1.08h-.22V26a1,1,0,0,0,0-.29.25.25,0,0,0-.09-.13.19.19,0,0,0-.14-.05.3.3,0,0,0-.25.13.78.78,0,0,0-.09.44v1ZM26.48,25v-.34h.21V25Zm0,2.08V25.32h.21v1.75Zm.54,0V25.32h.19v.24a.6.6,0,0,1,.17-.21.34.34,0,0,1,.22-.07.35.35,0,0,1,.22.08.4.4,0,0,1,.13.23.54.54,0,0,1,.18-.23.28.28,0,0,1,.21-.08.34.34,0,0,1,.29.14.74.74,0,0,1,.11.45v1.2h-.22V26a1.47,1.47,0,0,0,0-.27.25.25,0,0,0-.08-.12.19.19,0,0,0-.12,0,.28.28,0,0,0-.23.12.68.68,0,0,0-.09.39v1h-.21V25.93a.56.56,0,0,0-.06-.3.18.18,0,0,0-.16-.09.26.26,0,0,0-.23.13.94.94,0,0,0-.09.49v.91Zm2.86-.21a.93.93,0,0,1-.22.19.54.54,0,0,1-.25.06A.39.39,0,0,1,29.1,27a.53.53,0,0,1-.12-.37.6.6,0,0,1,.06-.27.34.34,0,0,1,.15-.18.61.61,0,0,1,.29-.1,1.55,1.55,0,0,0,.38-.1v-.08a.4.4,0,0,0-.06-.25.3.3,0,0,0-.25-.11.34.34,0,0,0-.22.07.49.49,0,0,0-.11.27L29,25.81a.68.68,0,0,1,.18-.4.53.53,0,0,1,.39-.13.58.58,0,0,1,.32.08.41.41,0,0,1,.14.21,1.77,1.77,0,0,1,0,.37v.4c0,.28,0,.45,0,.52a.83.83,0,0,0,.06.21h-.22a.65.65,0,0,1-.05-.21Zm0-.67a1,1,0,0,1-.35.11.5.5,0,0,0-.19.07.24.24,0,0,0-.08.09.32.32,0,0,0,0,.14.26.26,0,0,0,.07.2.21.21,0,0,0,.19.08.35.35,0,0,0,.21-.07.37.37,0,0,0,.14-.18.92.92,0,0,0,0-.33v-.11Zm.55.88V24.65h.21v2.42Zm1.66,0V24.93H31.5v-.28h1.38v.28h-.57v2.14Zm.93,0V25.32h.19v.27a.75.75,0,0,1,.14-.25.18.18,0,0,1,.14-.06.37.37,0,0,1,.22.09l-.08.28a.24.24,0,0,0-.15-.06.21.21,0,0,0-.13.05.36.36,0,0,0-.08.15,2.21,2.21,0,0,0,0,.37v.91Zm1.64-.21a1,1,0,0,1-.23.19.53.53,0,0,1-.24.06.41.41,0,0,1-.32-.13.58.58,0,0,1-.11-.37.59.59,0,0,1,0-.27.45.45,0,0,1,.15-.18.66.66,0,0,1,.3-.1,1.55,1.55,0,0,0,.38-.1v-.08a.4.4,0,0,0-.06-.25.28.28,0,0,0-.24-.11.34.34,0,0,0-.22.07.49.49,0,0,0-.11.27l-.22-.05a.63.63,0,0,1,.19-.4.53.53,0,0,1,.39-.13.54.54,0,0,1,.31.08.38.38,0,0,1,.15.21,1.77,1.77,0,0,1,0,.37v.4c0,.28,0,.45,0,.52a1.6,1.6,0,0,0,0,.21h-.22a.65.65,0,0,1,0-.21Zm0-.67a1.11,1.11,0,0,1-.35.11.5.5,0,0,0-.19.07.18.18,0,0,0-.08.09.32.32,0,0,0,0,.14.3.3,0,0,0,.06.2.22.22,0,0,0,.19.08.31.31,0,0,0,.21-.07.32.32,0,0,0,.14-.18.87.87,0,0,0,0-.33v-.11Zm.55.88V25.32h.19v.25a.67.67,0,0,1,.17-.22.4.4,0,0,1,.24-.07.29.29,0,0,1,.18,0,.31.31,0,0,1,.14.11.54.54,0,0,1,.08.19,1.6,1.6,0,0,1,0,.36v1.08H36V26a1,1,0,0,0,0-.29.25.25,0,0,0-.09-.13.19.19,0,0,0-.14-.05.27.27,0,0,0-.24.13.69.69,0,0,0-.1.44v1Zm1.27-.52.22-.05a.48.48,0,0,0,.1.28.33.33,0,0,0,.44,0,.28.28,0,0,0,.08-.2.22.22,0,0,0-.07-.16.65.65,0,0,0-.22-.1,1.82,1.82,0,0,1-.33-.15.34.34,0,0,1-.13-.16.6.6,0,0,1-.05-.24.5.5,0,0,1,.13-.36.45.45,0,0,1,.35-.14.51.51,0,0,1,.25.06.46.46,0,0,1,.16.15.85.85,0,0,1,.08.28l-.21.05c0-.2-.11-.3-.28-.3a.28.28,0,0,0-.21.07.21.21,0,0,0-.06.16.19.19,0,0,0,.06.15L37,26a1.27,1.27,0,0,1,.34.15.44.44,0,0,1,.12.15.6.6,0,0,1,0,.24.62.62,0,0,1-.14.41.51.51,0,0,1-.39.15c-.3,0-.48-.18-.53-.56Zm1.31,1.2V25.32H38v.23a.53.53,0,0,1,.16-.21.36.36,0,0,1,.2-.06.39.39,0,0,1,.27.1.72.72,0,0,1,.2.31,1.41,1.41,0,0,1,.07.49,1.21,1.21,0,0,1-.17.69.46.46,0,0,1-.38.24.41.41,0,0,1-.19-.05.86.86,0,0,1-.15-.17v.86Zm.2-1.54a1,1,0,0,0,.1.5.26.26,0,0,0,.24.16.3.3,0,0,0,.24-.17,1.09,1.09,0,0,0,.1-.51,1,1,0,0,0-.1-.51.3.3,0,0,0-.24-.17q-.13,0-.24.18a1,1,0,0,0-.1.52Zm1.08,0a1.12,1.12,0,0,1,.17-.69.5.5,0,0,1,.84,0,1.09,1.09,0,0,1,.17.67,1.21,1.21,0,0,1-.16.7.5.5,0,0,1-.43.23.48.48,0,0,1-.42-.23A1.15,1.15,0,0,1,39,26.2Zm.22,0a1,1,0,0,0,.11.5.32.32,0,0,0,.27.17.33.33,0,0,0,.26-.17,1,1,0,0,0,.1-.5,1,1,0,0,0-.1-.51.34.34,0,0,0-.27-.17.3.3,0,0,0-.26.17.88.88,0,0,0-.11.51Zm1.22.87V25.32h.19v.27a.75.75,0,0,1,.14-.25.18.18,0,0,1,.14-.06.37.37,0,0,1,.22.09l-.08.28a.24.24,0,0,0-.15-.06.21.21,0,0,0-.13.05.53.53,0,0,0-.08.15,2.21,2.21,0,0,0,0,.37v.91Zm1.29-.26,0,.26-.16,0a.3.3,0,0,1-.18-.05.28.28,0,0,1-.1-.14,2.39,2.39,0,0,1,0-.35v-1h-.16v-.23h.16v-.44l.21-.18v.62h.22v.23h-.22v1a.62.62,0,0,0,0,.18.11.11,0,0,0,.11.06Zm1,.05a1,1,0,0,1-.23.19.53.53,0,0,1-.24.06A.41.41,0,0,1,42,27a.53.53,0,0,1-.11-.37.59.59,0,0,1,0-.27.45.45,0,0,1,.15-.18.66.66,0,0,1,.29-.1,1.52,1.52,0,0,0,.39-.1v-.08a.4.4,0,0,0-.06-.25.28.28,0,0,0-.24-.11.37.37,0,0,0-.23.07.58.58,0,0,0-.1.27l-.22-.05a.68.68,0,0,1,.18-.4.57.57,0,0,1,.4-.13.54.54,0,0,1,.31.08.38.38,0,0,1,.15.21,1.77,1.77,0,0,1,0,.37v.4c0,.28,0,.45,0,.52a1.6,1.6,0,0,0,0,.21h-.22a.65.65,0,0,1,0-.21Zm0-.67a1.11,1.11,0,0,1-.35.11.44.44,0,0,0-.19.07.2.2,0,0,0-.09.09.59.59,0,0,0,0,.14.3.3,0,0,0,.06.2.22.22,0,0,0,.19.08.31.31,0,0,0,.21-.07.37.37,0,0,0,.14-.18.87.87,0,0,0,.05-.33v-.11Zm1,.62,0,.26-.16,0a.3.3,0,0,1-.18-.05.28.28,0,0,1-.1-.14,1.48,1.48,0,0,1,0-.35v-1h-.16v-.23h.16v-.44l.21-.18v.62h.22v.23h-.22v1a.62.62,0,0,0,0,.18.1.1,0,0,0,.1.06ZM44,25v-.34h.21V25Zm0,2.08V25.32h.21v1.75Zm.46-.87a1.19,1.19,0,0,1,.17-.69.51.51,0,0,1,.42-.23.54.54,0,0,1,.43.23,1.16,1.16,0,0,1,.17.67,1.2,1.2,0,0,1-.17.7.51.51,0,0,1-.85,0,1.15,1.15,0,0,1-.17-.68Zm.22,0a1,1,0,0,0,.11.5.29.29,0,0,0,.53,0,1,1,0,0,0,.11-.5,1,1,0,0,0-.11-.51.34.34,0,0,0-.27-.17.31.31,0,0,0-.26.17,1,1,0,0,0-.11.51Zm1.22.87V25.32h.19v.25a.67.67,0,0,1,.17-.22.39.39,0,0,1,.23-.07.3.3,0,0,1,.19,0,.31.31,0,0,1,.14.11.54.54,0,0,1,.08.19,1.6,1.6,0,0,1,0,.36v1.08h-.22V26a1,1,0,0,0,0-.29.25.25,0,0,0-.09-.13.19.19,0,0,0-.14-.05.27.27,0,0,0-.24.13.69.69,0,0,0-.1.44v1Zm1.74,0,.68-2.42h.24l.72,2.42H49l-.2-.73h-.73l-.19.73Zm.5-1h.6l-.18-.67c-.06-.21-.1-.38-.13-.51a3.89,3.89,0,0,1-.09.47l-.2.71Z"/>
         <path class="cls-1" d="M49.35,26.55l.21-.05a.48.48,0,0,0,.11.28.28.28,0,0,0,.22.09.29.29,0,0,0,.21-.08.24.24,0,0,0,.08-.2.21.21,0,0,0-.06-.16.77.77,0,0,0-.22-.1,1.68,1.68,0,0,1-.34-.15.42.42,0,0,1-.13-.16.61.61,0,0,1,0-.24.54.54,0,0,1,.12-.36.47.47,0,0,1,.35-.14.49.49,0,0,1,.25.06.5.5,0,0,1,.17.15.88.88,0,0,1,.07.28l-.21.05c0-.2-.11-.3-.27-.3a.27.27,0,0,0-.21.07.19.19,0,0,0-.07.16.17.17,0,0,0,.07.15,1,1,0,0,0,.23.11,1.39,1.39,0,0,1,.35.15.44.44,0,0,1,.12.15.61.61,0,0,1,0,.24.62.62,0,0,1-.14.41.49.49,0,0,1-.38.15c-.31,0-.48-.18-.53-.56Zm1.22,0,.22-.05a.42.42,0,0,0,.1.28.28.28,0,0,0,.22.09.31.31,0,0,0,.22-.08.27.27,0,0,0,.07-.2.21.21,0,0,0-.06-.16.65.65,0,0,0-.22-.1,1.32,1.32,0,0,1-.33-.15.44.44,0,0,1-.14-.16.61.61,0,0,1,0-.24.54.54,0,0,1,.12-.36.52.52,0,0,1,.6-.08.5.5,0,0,1,.17.15,1.2,1.2,0,0,1,.08.28l-.21.05c0-.2-.11-.3-.28-.3a.28.28,0,0,0-.21.07.22.22,0,0,0-.07.16.17.17,0,0,0,.07.15,1.23,1.23,0,0,0,.23.11,1.39,1.39,0,0,1,.35.15.44.44,0,0,1,.12.15.61.61,0,0,1,0,.24.57.57,0,0,1-.14.41.49.49,0,0,1-.38.15c-.3,0-.48-.18-.53-.56Zm1.23-.35a1.19,1.19,0,0,1,.16-.69.54.54,0,0,1,.43-.23.51.51,0,0,1,.42.23,1.09,1.09,0,0,1,.17.67,1.13,1.13,0,0,1-.17.7.5.5,0,0,1-.84,0,1.08,1.08,0,0,1-.17-.68Zm.22,0a.86.86,0,0,0,.11.5.32.32,0,0,0,.27.17.3.3,0,0,0,.25-.17.86.86,0,0,0,.11-.5.88.88,0,0,0-.11-.51.32.32,0,0,0-.27-.17.33.33,0,0,0-.26.17,1,1,0,0,0-.1.51Zm2,.23.22,0a1,1,0,0,1-.18.48.46.46,0,0,1-.36.16.48.48,0,0,1-.41-.23,1.25,1.25,0,0,1-.16-.69,1.15,1.15,0,0,1,.17-.68.48.48,0,0,1,.41-.23.45.45,0,0,1,.33.14.74.74,0,0,1,.18.41l-.21.05a.56.56,0,0,0-.11-.27.23.23,0,0,0-.18-.09.31.31,0,0,0-.26.16,1,1,0,0,0-.11.51,1.11,1.11,0,0,0,.1.52.29.29,0,0,0,.26.16.24.24,0,0,0,.2-.11.56.56,0,0,0,.11-.33Zm.4-1.44v-.34h.21V25Zm0,2.08V25.32h.21v1.75Zm1.37-.21a1,1,0,0,1-.23.19.53.53,0,0,1-.24.06A.41.41,0,0,1,55,27a.58.58,0,0,1-.11-.37.59.59,0,0,1,0-.27.45.45,0,0,1,.15-.18.66.66,0,0,1,.29-.1,1.52,1.52,0,0,0,.39-.1v-.08a.4.4,0,0,0-.06-.25.28.28,0,0,0-.24-.11.37.37,0,0,0-.23.07.58.58,0,0,0-.1.27L55,25.81a.68.68,0,0,1,.18-.4.57.57,0,0,1,.4-.13.54.54,0,0,1,.31.08.38.38,0,0,1,.15.21,1.77,1.77,0,0,1,0,.37v.4c0,.28,0,.45,0,.52a1.6,1.6,0,0,0,.05.21h-.22a.65.65,0,0,1,0-.21Zm0-.67a1.11,1.11,0,0,1-.35.11.44.44,0,0,0-.19.07.14.14,0,0,0-.08.09.32.32,0,0,0,0,.14.3.3,0,0,0,.06.2.22.22,0,0,0,.19.08.31.31,0,0,0,.21-.07.37.37,0,0,0,.14-.18.87.87,0,0,0,.05-.33v-.11Zm1,.62,0,.26-.16,0a.3.3,0,0,1-.18-.05.28.28,0,0,1-.1-.14,2.39,2.39,0,0,1,0-.35v-1h-.16v-.23h.16v-.44l.21-.18v.62h.22v.23h-.22v1a.62.62,0,0,0,0,.18.1.1,0,0,0,.1.06ZM57,25v-.34h.21V25Zm0,2.08V25.32h.21v1.75Zm.46-.87a1.19,1.19,0,0,1,.17-.69.51.51,0,0,1,.42-.23.54.54,0,0,1,.43.23,1.16,1.16,0,0,1,.17.67,1.2,1.2,0,0,1-.17.7.51.51,0,0,1-.85,0,1.15,1.15,0,0,1-.17-.68Zm.22,0a1,1,0,0,0,.11.5.29.29,0,0,0,.53,0,1,1,0,0,0,.11-.5,1,1,0,0,0-.11-.51.34.34,0,0,0-.27-.17.31.31,0,0,0-.26.17,1,1,0,0,0-.11.51Zm1.22.87V25.32h.19v.25a.67.67,0,0,1,.17-.22.4.4,0,0,1,.24-.07.29.29,0,0,1,.18,0,.31.31,0,0,1,.14.11.54.54,0,0,1,.08.19A1.6,1.6,0,0,1,60,26v1.08h-.22V26a1,1,0,0,0,0-.29.25.25,0,0,0-.09-.13.17.17,0,0,0-.14-.05.27.27,0,0,0-.24.13.69.69,0,0,0-.1.44v1Z"/>
      </g>
   </g>
</svg>