<?xml version="1.0" encoding="UTF-8"?>
<!DOCTYPE svg PUBLIC "-//W3C//DTD SVG 1.1//EN" "http://www.w3.org/Graphics/SVG/1.1/DTD/svg11.dtd">
<!-- Creator: CorelDRAW 2020 (64 Bit) -->
<svg xmlns="http://www.w3.org/2000/svg" xml:space="preserve" width="125.405mm" height="37.8662mm" version="1.1" style="shape-rendering:geometricPrecision; text-rendering:geometricPrecision; image-rendering:optimizeQuality; fill-rule:evenodd; clip-rule:evenodd"
viewBox="0 0 12579.8 3798.48"
 xmlns:xlink="http://www.w3.org/1999/xlink"
 xmlns:xodm="http://www.corel.com/coreldraw/odm/2003">
 <defs>
  <style type="text/css">
   <![CDATA[
    .fil0 {fill:#F58634;fill-rule:nonzero}
   ]]>
  </style>
 </defs>
 <g id="Camada_x0020_1">
  <metadata id="CorelCorpID_0Corel-Layer"/>
  <g id="_2028944157680">
   <path class="fil0" d="M1284.13 1514.79c-103.76,0 -315.2,-161.48 -495.94,-161.48 -99.92,0 -188.35,46.13 -188.35,153.78 0,257.58 961.13,219.14 961.13,849.66 0,369.07 -311.39,649.73 -788.19,649.73 -311.39,0 -772.78,-176.82 -772.78,-426.74 0,-84.6 84.61,-246.06 238.39,-246.06 215.3,0 311.43,188.38 572.83,188.38 169.22,0 219.17,-53.81 219.17,-157.6 0,-253.77 -961.12,-215.3 -961.12,-849.66 0,-384.49 311.39,-645.92 749.65,-645.92 273.01,0 692.09,126.87 692.09,399.82 0,126.87 -96.13,246.1 -226.89,246.1z"/>
   <path class="fil0" d="M1587.9 1272.55c-15.35,-42.29 -26.92,-84.58 -26.92,-142.24 0,-138.41 146.09,-238.39 261.43,-238.39 134.58,0 230.67,73.09 276.84,196.1l380.63 1041.88 407.51 -1041.88c46.17,-123.01 142.27,-196.1 276.78,-196.1 115.34,0 261.5,99.98 261.5,238.39 0,57.66 -7.7,99.95 -26.92,142.24l-926.57 2306.82c-46.13,115.31 -130.74,219.1 -261.44,219.1 -188.4,0 -288.34,-119.16 -288.34,-238.32 0,-53.88 15.33,-111.54 34.59,-161.49l242.21 -599.77 -611.29 -1526.34z"/>
   <path class="fil0" d="M4690.56 1514.79c-103.82,0 -315.26,-161.48 -496.01,-161.48 -99.91,0 -188.34,46.13 -188.34,153.78 0,257.58 961.12,219.14 961.12,849.66 0,369.07 -311.39,649.73 -788.12,649.73 -311.45,0 -772.75,-176.82 -772.75,-426.74 0,-84.6 84.52,-246.06 238.3,-246.06 215.36,0 311.49,188.38 572.92,188.38 169.12,0 219.08,-53.81 219.08,-157.6 0,-253.77 -961.13,-215.3 -961.13,-849.66 0,-384.49 311.39,-645.92 749.69,-645.92 273.01,0 692.05,126.87 692.05,399.82 0,126.87 -96.13,246.1 -226.82,246.1z"/>
   <path class="fil0" d="M5163.45 307.55c0,-184.54 115.34,-307.55 276.83,-307.55 161.42,0 276.77,123.01 276.77,307.55l0 753.58c146.09,-126.9 334.51,-192.26 526.74,-192.26 595.92,0 891.92,557.46 891.92,1095.7 0,522.89 -353.65,1041.91 -911.14,1041.91 -188.44,0 -403.7,-84.58 -507.52,-253.73 -34.57,146.09 -122.99,230.69 -276.77,230.69 -161.49,0 -276.83,-123.05 -276.83,-307.61l0 -2368.29zm988.04 2191.47c288.36,0 430.62,-299.91 430.62,-557.49 0,-261.44 -142.26,-565.18 -430.62,-565.18 -295.98,0 -434.43,276.83 -434.43,545.96 0,269.13 130.74,576.71 434.43,576.71z"/>
   <path class="fil0" d="M7362.6 1168.76c0,-184.53 146.09,-276.83 284.54,-276.83 146.09,0 269.13,53.84 269.13,230.69l7.64 0c103.81,-153.78 215.35,-230.69 388.35,-230.69 134.57,0 269.08,96.13 269.08,296.05 0,180.67 -165.31,192.25 -330.61,269.13 -165.35,76.91 -334.46,149.91 -334.46,369.08l0 849.65c0,184.54 -115.35,307.58 -276.83,307.58 -161.48,0 -276.83,-123.04 -276.83,-307.58l0 -1507.09z"/>
   <path class="fil0" d="M10522.94 2622.03c0,142.24 0,361.42 -265.32,361.42 -161.42,0 -226.82,-88.43 -265.25,-234.54 -142.26,169.15 -315.27,257.57 -526.75,257.57 -519.05,0 -915.01,-442.11 -915.01,-1064.95 0,-607.45 407.58,-1072.66 915.01,-1072.66 203.78,0 403.7,80.73 526.75,253.73 15.34,-134.56 130.68,-230.69 265.25,-230.69 265.32,0 265.32,219.17 265.32,361.41l0 1368.7zm-980.41 -123.01c288.36,0 426.74,-292.2 426.74,-557.48 0,-265.29 -134.57,-565.18 -426.74,-565.18 -303.69,0 -438.26,299.9 -438.26,565.18 0,265.28 138.39,557.48 438.26,557.48z"/>
   <path class="fil0" d="M12368.36 1484.01c-138.39,0 -261.44,-107.68 -438.26,-107.68 -315.27,0 -465.21,280.68 -465.21,565.18 0,272.95 165.34,557.48 465.21,557.48 138.38,0 346.01,-115.31 411.4,-115.31 130.68,0 238.29,111.43 238.29,242.19 0,284.46 -476.7,380.59 -676.62,380.59 -595.95,0 -991.95,-488.21 -991.95,-1064.95 0,-561.3 407.57,-1072.66 991.95,-1072.66 219.14,0 676.62,80.73 676.62,349.86 0,115.35 -80.69,265.29 -211.44,265.29z"/>
  </g>
 </g>
</svg>
