<?xml version="1.0" encoding="UTF-8"?>
<!DOCTYPE svg PUBLIC "-//W3C//DTD SVG 1.1//EN" "http://www.w3.org/Graphics/SVG/1.1/DTD/svg11.dtd">
<!-- Creator: CorelDRAW 2020 (64 Bit) -->
<svg xmlns="http://www.w3.org/2000/svg" xml:space="preserve" width="166.985mm" height="19.32mm" version="1.1" style="shape-rendering:geometricPrecision; text-rendering:geometricPrecision; image-rendering:optimizeQuality; fill-rule:evenodd; clip-rule:evenodd"
viewBox="0 0 3644.14 421.62"
 xmlns:xlink="http://www.w3.org/1999/xlink"
 xmlns:xodm="http://www.corel.com/coreldraw/odm/2003">
 <defs>
  <style type="text/css">
   <![CDATA[
    .fil0 {fill:##00173B;fill-rule:nonzero}
   ]]>
  </style>
 </defs>
 <g id="Camada_x0020_1">
  <metadata id="CorelCorpID_0Corel-Layer"/>
  <g id="_2294029143584">
   <g>
    <g>
     <path class="fil0" d="M163.46 201.65l-2.29 5.35c-9.93,-2.29 -27.5,-8.4 -45.83,-16.8l-2.29 4.58 7.64 3.82c26.73,13.75 35.9,16.8 51.18,16.8 31.32,0 54.23,-17.57 65.69,-48.88 19.1,-3.82 44.3,-5.35 73.33,-5.35 25.21,0 47.36,1.53 74.85,4.58l-6.87 8.4c-12.98,-1.53 -36.66,-3.06 -54.23,-3.06 -20.62,0 -33.61,0.76 -40.48,0.76l-3.82 7.64c17.57,-0.76 23.68,-0.76 36.66,-0.76 22.91,0 40.48,0.76 55.76,2.29l-6.87 9.17c-25.97,-0.76 -38.19,-1.53 -58.05,-1.53 -10.69,0 -19.1,0.76 -32.08,0.76l-3.06 7.64c11.46,-0.76 26.73,-1.53 42.77,-1.53 15.28,0 33.61,0.76 45.06,0.76l-6.87 9.17c-7.64,-0.76 -22.15,-0.76 -33.61,-0.76 -18.33,0 -40.48,0.76 -51.94,2.29l-3.06 6.87c21.39,-2.29 35.14,-3.06 58.05,-3.06 9.17,0 15.28,0 25.21,0.76l-7.64 9.93c-14.51,-0.76 -19.1,-0.76 -24.44,-0.76 -39.72,0 -65.69,6.11 -91.66,20.62 23.68,23.68 63.4,40.48 99.3,40.48 3.06,0 4.58,0 12.22,-0.76l-17.57 17.57c-94.71,-24.44 -111.52,-31.32 -198.59,-83.26 -34.37,-19.86 -62.63,-32.84 -84.78,-39.72l3.06 -10.69c5.35,0.76 16.8,4.58 28.26,7.64l5.35 -11.46 91.66 40.48zm-142.83 8.4c0,103.88 84.78,188.66 188.66,188.66 104.64,0 189.43,-84.02 189.43,-188.66 0,-106.17 -84.02,-190.19 -190.95,-190.19 -102.35,0.76 -187.13,86.31 -187.13,190.19l0 0zm398.71 0c0,116.1 -93.19,209.28 -210.05,209.28 -115.34,0 -209.28,-93.19 -209.28,-208.52 0,-117.63 93.95,-210.81 213.1,-210.81 113.04,0 206.23,94.71 206.23,210.05l0 0zm1966.81 42.77c-8.4,2.29 -11.46,3.06 -18.33,5.35 -8.4,1.53 -16.04,3.06 -23.68,5.35 -21.39,5.35 -32.08,13.75 -32.08,26.73 0,12.98 9.93,20.62 26.73,20.62 32.08,0 47.36,-14.51 47.36,-44.3l0 -13.75zm-126.03 -40.48c0.76,-45.06 35.9,-72.56 96.24,-72.56 62.63,0 93.19,25.97 93.19,78.67l0 102.35c0,16.8 0,16.8 5.35,28.26l-61.1 0 -3.06 -16.8c-24.44,19.86 -38.19,25.21 -65.69,25.21 -45.06,0 -77.14,-26.73 -77.14,-62.63 0,-30.55 19.86,-51.18 58.05,-62.63 6.11,-1.53 25.21,-6.11 58.05,-11.46 13.75,-3.06 19.86,-7.64 19.86,-17.57 0,-11.46 -11.46,-19.1 -29.02,-19.1 -21.39,0 -34.37,10.69 -34.37,27.5l-60.34 0 0 0.76zm-91.66 -1.53c-1.53,-19.1 -9.93,-25.97 -29.79,-25.97 -16.04,0 -26.73,6.11 -26.73,16.8 0,9.93 9.93,15.28 31.32,19.1l22.91 3.82c48.12,7.64 70.27,28.26 70.27,62.63 0,42.77 -36.66,70.27 -93.19,70.27 -67.22,0 -104.64,-26.73 -104.64,-75.62l64.16 0 0 2.29c0,16.8 13.75,27.5 35.9,27.5 19.1,0 31.32,-6.87 31.32,-18.33 0,-11.46 -10.69,-18.33 -36.66,-22.91l-20.62 -3.06c-48.12,-8.4 -67.98,-25.21 -67.98,-57.29 0,-43.54 36.66,-70.27 96.24,-70.27 42.01,0 67.98,11.46 80.96,35.9 6.11,9.93 6.87,13.75 8.4,35.9l-61.87 -0.76zm-277.26 -62.63l2.29 22.91c15.28,-19.86 33.61,-28.26 58.05,-28.26 28.26,0 50.41,12.22 62.63,32.84 8.4,15.28 9.93,24.44 9.93,57.29l0 116.86 -65.69 0 0 -113.81c0,-29.79 -8.4,-42.01 -29.02,-42.01 -21.39,0 -32.08,14.51 -32.08,42.01l0 113.81 -65.69 0 0 -201.65 59.58 0zm-146.65 104.64c-8.4,2.29 -10.69,3.06 -17.57,5.35 -7.64,2.29 -15.28,3.82 -23.68,5.35 -21.39,5.35 -32.08,13.75 -32.08,26.73 0,12.98 9.93,20.62 25.97,20.62 32.08,0 47.36,-14.51 47.36,-44.3l0 -13.75zm-125.27 -40.48c0,-45.83 35.9,-72.56 95.48,-72.56 62.63,0 93.19,25.97 93.19,78.67l0 102.35c0,17.57 0,17.57 5.35,28.26l-61.1 0 -3.82 -16.8c-20.62,18.33 -38.95,25.21 -65.69,25.21 -44.3,0 -76.38,-26.73 -76.38,-62.63 0,-30.55 19.86,-51.18 58.05,-62.63 6.11,-1.53 25.21,-5.35 58.05,-11.46 14.51,-3.06 19.86,-7.64 19.86,-17.57 0,-11.46 -11.46,-19.1 -29.02,-19.1 -21.39,0 -33.61,9.93 -34.37,27.5l-59.58 0 0 0.76zm-155.05 -142.83l0 100.82c12.22,-19.86 29.79,-28.26 54.99,-28.26 27.5,0 49.65,11.46 61.87,32.84 8.4,15.28 9.93,23.68 9.93,57.29l0 116.86 -65.69 0 0 -113.81c0,-29.02 -8.4,-42.01 -29.02,-42.01 -21.39,0 -32.84,14.51 -32.84,42.01l0 113.81 -65.69 0 0 -279.56 66.45 0zm-120.68 16.04l0 62.63 37.43 0 0 44.3 -37.43 0 0 79.44c0.76,29.02 2.29,31.32 27.5,31.32l12.98 0 0 45.83 -49.65 0c-38.95,0 -56.52,-18.33 -56.52,-58.81l0 -97.77 -27.5 0 0 -44.3 27.5 0 0 -62.63 65.69 0zm-101.59 29.02l-10.69 0c-24.44,0 -30.55,6.11 -30.55,28.26l0 6.11 38.95 0 0 44.3 -38.95 0 0 156.58 -65.69 0 0 -156.58 -28.26 0 0 -44.3 28.26 0 0 -6.11c0,-52.7 19.86,-72.56 71.03,-72.56l35.9 0 0 44.3zm-208.52 235.25l-2.29 -19.86c-16.04,17.57 -35.14,25.21 -58.05,25.21 -28.26,0 -51.18,-11.46 -63.4,-32.08 -9.17,-15.28 -9.93,-22.91 -9.93,-55.76l0 -119.15 65.69 0 0 116.86c0,29.02 8.4,41.25 29.02,41.25 22.15,0 32.84,-14.51 32.84,-41.25l0 -116.86 65.69 0 0 201.65 -59.58 0zm-265.04 -280.32l0 224.56 118.39 0 0 55.76 -187.9 0 0 -279.56 69.51 -0.76zm2060 183.31c-0.76,24.44 -6.87,42.77 -22.15,61.1 -22.91,29.02 -58.05,44.3 -104.64,44.3 -42.01,0 -74.09,-11.46 -99.3,-35.14 -29.02,-27.5 -45.06,-66.45 -45.06,-110.75 0,-45.83 16.04,-88.6 45.06,-115.34 23.68,-22.91 58.05,-35.14 100.82,-35.14 45.83,0 79.44,15.28 103.11,45.83 13.75,18.33 19.86,35.9 22.15,60.34l-71.03 0c-4.58,-32.08 -26.73,-51.94 -57.29,-51.94 -42.01,0 -67.98,35.14 -67.98,90.89 0,58.81 25.97,93.19 70.27,93.19 31.32,0 50.41,-16.04 54.99,-47.36l71.03 0zm148.94 0c-7.64,2.29 -10.69,3.06 -18.33,5.35 -2.29,0.76 -2.29,0.76 -23.68,6.11 -21.39,5.35 -32.08,13.75 -32.08,26.73 0,12.22 9.93,20.62 26.73,20.62 17.57,0 34.37,-7.64 41.25,-18.33 3.82,-5.35 5.35,-12.98 5.35,-25.97l0.76 -14.51zm-126.03 -40.48c0,-45.06 35.9,-72.56 95.48,-72.56 41.25,0 70.27,12.98 84.02,36.66 6.87,12.22 8.4,22.15 8.4,42.01l0 111.52c0,7.64 0.76,9.93 5.35,19.1l-60.34 0 -3.82 -16.8c-22.91,19.1 -38.19,25.21 -65.69,25.21 -45.06,0 -76.38,-26.73 -76.38,-62.63 0,-30.55 19.86,-51.18 58.05,-62.63 5.35,-1.53 24.44,-5.35 58.05,-11.46 13.75,-3.06 19.86,-7.64 19.86,-17.57 0,-11.46 -12.22,-18.33 -29.79,-18.33 -21.39,0 -33.61,9.93 -34.37,27.5l-58.81 0zm271.92 -64.16l2.29 21.39c12.98,-17.57 32.08,-27.5 53.47,-27.5 2.29,0 7.64,0.76 13.75,1.53l0 54.99c-5.35,-0.76 -6.87,-1.53 -10.69,-1.53 -18.33,0 -33.61,7.64 -43.54,21.39 -6.87,10.69 -9.17,19.86 -9.17,43.54l0 87.84 -65.69 0 0 -201.65 59.58 0zm132.9 92.42c0,30.55 17.57,50.41 43.54,50.41 25.97,0 40.48,-18.33 40.48,-50.41 0,-32.08 -15.28,-50.41 -41.25,-50.41 -25.97,0.76 -42.77,20.62 -42.77,50.41l0 0zm148.18 -92.42l0 184.84c0,32.84 -2.29,41.25 -16.04,57.29 -20.62,21.39 -48.12,31.32 -91.66,31.32 -32.08,0 -54.23,-7.64 -72.56,-23.68 -12.98,-11.46 -18.33,-23.68 -19.86,-41.25l66.45 0c4.58,14.51 13.75,19.86 32.08,19.86 25.21,0 38.95,-13.75 38.95,-39.72l0 -14.51c-17.57,12.98 -32.08,18.33 -53.47,18.33 -57.29,0 -96.24,-38.95 -96.24,-97.77 0,-58.05 39.72,-100.06 94.71,-100.06 24.44,0 41.25,6.87 55.76,22.91l2.29 -17.57 59.58 0zm82.49 100.06c0,38.19 15.28,58.81 45.06,58.81 29.79,0 45.83,-20.62 45.83,-58.81 0,-39.72 -15.28,-59.58 -45.83,-59.58 -29.79,0.76 -45.06,21.39 -45.06,59.58l0 0zm157.35 0.76c0,68.74 -41.25,109.23 -112.28,109.23 -70.27,0 -111.52,-40.48 -111.52,-108.46 0,-70.27 41.25,-109.23 113.04,-109.23 69.51,-0.76 110.75,40.48 110.75,108.46z"/>
    </g>
   </g>
  </g>
 </g>
</svg>
