<?xml version="1.0" encoding="UTF-8"?>
<!DOCTYPE svg PUBLIC "-//W3C//DTD SVG 1.1//EN" "http://www.w3.org/Graphics/SVG/1.1/DTD/svg11.dtd">
<!-- Creator: CorelDRAW 2020 (64 Bit) -->
<svg xmlns="http://www.w3.org/2000/svg" xml:space="preserve" width="99.3328mm" height="35.3368mm" version="1.1" style="shape-rendering:geometricPrecision; text-rendering:geometricPrecision; image-rendering:optimizeQuality; fill-rule:evenodd; clip-rule:evenodd"
viewBox="0 0 9552.57 3398.25"
 xmlns:xlink="http://www.w3.org/1999/xlink"
 xmlns:xodm="http://www.corel.com/coreldraw/odm/2003">
 <defs>
  <style type="text/css">
   <![CDATA[
    .fil0 {fill:#125D38}
    .fil1 {fill:#FFFB00}
    .fil2 {fill:#125D38;fill-rule:nonzero}
   ]]>
  </style>
 </defs>
 <g id="Camada_x0020_1">
  <metadata id="CorelCorpID_0Corel-Layer"/>
  <path class="fil0" d="M4948.95 622.34l-73.64 73.64 468.08 468.08c17.57,17.57 26.35,40.82 26.35,64.08 0,23.43 -8.7,46.68 -26.19,64.25l-0.17 -0.17 -934.01 934.02 0.17 0.17c-17.57,17.4 -40.82,26.19 -64.25,26.19 -23.25,0 -46.51,-8.78 -64.08,-26.35l-934.02 -934.02c-17.57,-17.57 -26.35,-40.82 -26.35,-64.08 0,-23.51 8.7,-46.77 25.93,-64.08l0.43 0 934.02 -934.02 0 -0.43c17.31,-17.31 40.56,-25.93 64.08,-25.93 23.25,0 46.51,8.78 64.08,26.35l144.09 144.09 72 -72 72 -72 -144.09 -144.09c-57.35,-57.35 -132.63,-86.04 -207.99,-86.04 -74.92,0 -150.2,28.76 -207.73,86.21l-0.17 -0.17 -934.02 934.02 0.17 0.17c-57.44,57.53 -86.21,132.81 -86.21,207.73 0,75.27 28.68,150.63 86.04,207.99l934.02 934.02c57.28,57.28 132.63,86.04 207.99,86.04 75.01,0 150.2,-28.68 207.56,-86.04l0.43 0 934.01 -934.02 0 -0.43c57.28,-57.35 86.04,-132.55 86.04,-207.56 0,-75.27 -28.68,-150.63 -86.04,-207.99l-468.08 -468.08 -70.28 70.28 -0.17 0.17z"/>
  <path class="fil1" d="M4603.26 1833.77l73.64 -73.64 -468.08 -468.08c-17.57,-17.57 -26.35,-40.82 -26.35,-64.08 0,-23.43 8.7,-46.68 26.19,-64.25l0.17 0.17 934.01 -934.02 -0.17 -0.17c17.57,-17.4 40.82,-26.19 64.25,-26.19 23.25,0 46.51,8.78 64.08,26.35l934.02 934.02c17.57,17.57 26.35,40.82 26.35,64.08 0,23.51 -8.7,46.77 -25.93,64.08l-0.43 0 -934.02 934.02 0 0.43c-17.31,17.31 -40.56,25.93 -64.08,25.93 -23.25,0 -46.51,-8.78 -64.08,-26.35l-144.09 -144.09 -72 72 -72 72 144.09 144.09c57.35,57.35 132.63,86.04 207.99,86.04 74.92,0 150.2,-28.76 207.73,-86.21l0.17 0.17 934.02 -934.02 -0.17 -0.17c57.44,-57.53 86.21,-132.81 86.21,-207.73 0,-75.27 -28.68,-150.63 -86.04,-207.99l-934.02 -934.02c-57.28,-57.28 -132.63,-86.04 -207.99,-86.04 -75.01,0 -150.2,28.68 -207.56,86.04l-0.43 0 -934.01 934.02 0 0.43c-57.28,57.35 -86.04,132.55 -86.04,207.56 0,75.27 28.68,150.63 86.04,207.99l468.08 468.08 70.28 -70.28 0.17 -0.17z"/>
  <path class="fil2" d="M-0 3245.77l0 -519.67 317.77 305.53c8.63,8.63 17.37,17.83 26.34,27.63 8.87,9.79 18.19,20.86 27.98,33.1l0 -346.67 74.84 0 0 519.66 -323.95 -311.24c-8.63,-8.51 -17.02,-17.37 -25.06,-26.7 -8.16,-9.33 -15.74,-19.12 -23.08,-29.37l0 347.72 -74.84 0zm627.49 -323.83l0 182.55c0,31.35 6.53,53.97 19.47,67.61 12.93,13.64 33.92,20.52 63.06,20.52 29.15,0 50.13,-6.89 63.07,-20.52 12.94,-13.64 19.46,-36.26 19.46,-67.61l0 -182.55 74.15 0 0 160.29c0,61.89 -12.36,106.89 -37.19,134.87 -24.83,27.98 -64.46,41.97 -118.79,41.97 -55.26,0 -95.35,-13.88 -120.18,-41.62 -24.83,-27.73 -37.19,-72.85 -37.19,-135.21l0 -160.29 74.14 0zm34.27 -48.96l65.05 -93.02 76.93 0 -99.9 93.02 -42.08 0zm546.83 141.29c-11.42,-12.47 -24.59,-22.03 -39.75,-28.56 -15.16,-6.65 -31.48,-9.91 -49.07,-9.91 -30.2,0 -54.44,9.79 -72.74,29.37 -18.19,19.59 -27.27,45.47 -27.27,77.87 0,33.7 9.2,60.15 27.5,79.39 18.3,19.23 43.6,28.79 76.01,28.79 17.94,0 34.03,-3.38 48.14,-10.02 14.1,-6.76 26.46,-16.91 37.18,-30.54l0 85.33c-13.64,7.69 -28.32,13.41 -43.94,17.25 -15.51,3.85 -32.18,5.83 -49.66,5.83 -50.82,0 -92.21,-16.2 -124.15,-48.5 -32.05,-32.28 -48.03,-74.25 -48.03,-125.66 0,-52.1 16.56,-94.19 49.66,-126.12 33.23,-32.06 76.47,-48.03 130.1,-48.03 16.78,0 32.28,1.63 46.39,5.01 14.11,3.26 27.4,8.4 39.63,15.27l0 83.23zm79.16 231.5l0 -529.46 74.14 0 0 529.46 -74.14 0zm491.8 -151.07l-258.78 0c1.87,30.3 10.84,53.97 27.04,70.99 16.09,17.01 37.65,25.52 64.58,25.52 23.9,0 43.83,-5.01 59.68,-15.04 15.97,-10.02 29.84,-26.22 41.74,-48.6l62.25 34.85c-18.19,32.64 -40.69,56.77 -67.62,72.74 -26.81,15.97 -58.4,23.9 -94.53,23.9 -51.99,0 -93.26,-15.86 -124.04,-47.45 -30.66,-31.71 -46.04,-73.9 -46.04,-126.71 0,-50.82 15.86,-92.44 47.68,-125.19 31.71,-32.64 72.51,-48.96 122.4,-48.96 52.1,0 92.78,14.92 121.93,44.76 29.14,29.73 43.71,71.58 43.71,125.2l0 13.99zm-76.93 -49.66c-2.91,-23.2 -11.77,-40.92 -26.58,-53.05 -14.8,-12.23 -35.08,-18.3 -60.73,-18.3 -24.36,0 -43.95,5.95 -58.75,17.72 -14.68,11.89 -25.06,29.73 -31,53.62l177.06 0zm408.58 39.86c0,-30.07 -9.68,-55.6 -29.03,-76.46 -19.35,-20.87 -43.02,-31.24 -70.99,-31.24 -27.74,0 -51.4,10.38 -70.88,31.24 -19.46,20.86 -29.14,46.39 -29.14,76.46 0,30.08 9.67,55.6 29.14,76.47 19.47,20.87 43.13,31.24 70.88,31.24 27.74,0 51.41,-10.38 70.88,-31.24 19.46,-20.87 29.15,-46.39 29.15,-76.47zm-278.38 -0.69c0,-23.67 4.55,-46.04 13.53,-67.03 8.97,-21.1 21.91,-39.87 38.7,-56.19 16.67,-16.2 35.78,-28.56 57.47,-37.3 21.68,-8.63 44.29,-12.93 67.96,-12.93 24.36,0 47.32,4.31 68.88,12.93 21.45,8.74 40.8,21.45 57.94,38.24 17.02,16.68 29.96,35.44 38.93,56.42 8.87,20.87 13.29,42.9 13.29,65.87 0,23.9 -4.42,46.39 -13.17,67.26 -8.74,20.98 -21.56,39.52 -38.47,55.72 -17.71,17.02 -37.42,29.96 -59.09,38.7 -21.57,8.74 -44.41,13.17 -68.31,13.17 -23.44,0 -46.04,-4.43 -67.62,-13.17 -21.68,-8.74 -40.92,-21.45 -57.82,-38 -17.02,-16.91 -29.96,-35.79 -38.94,-56.78 -8.86,-20.86 -13.29,-43.25 -13.29,-66.9zm878.94 -1.4c0,-33.46 -7.81,-59.57 -23.43,-78.21 -15.63,-18.77 -37.42,-28.1 -65.4,-28.1 -28.09,0 -50.12,9.67 -66.1,28.91 -16.08,19.24 -24.13,46.04 -24.13,80.2 0,34.39 7.69,60.97 23.21,79.62 15.5,18.77 37.42,28.09 65.62,28.09 26.81,0 48.61,-10.14 65.28,-30.3 16.55,-20.17 24.95,-46.86 24.95,-80.2zm-2.1 -366.49l74.14 0 0 529.46 -74.14 0 0 -41.85c-13.17,18.54 -28.68,32.41 -46.28,41.51 -17.72,9.09 -37.89,13.64 -60.74,13.64 -45.69,0 -81.83,-15.62 -108.05,-46.98 -26.35,-31.24 -39.52,-74.14 -39.52,-128.58 0,-51.64 13.41,-93.37 40.33,-125.08 26.94,-31.83 62.02,-47.68 105.26,-47.68 26.47,0 49.07,5.48 67.85,16.55 18.76,10.95 32.52,26.81 41.15,47.45l0 -258.44zm488.18 378.39l-258.78 0c1.87,30.3 10.84,53.97 27.04,70.99 16.09,17.01 37.65,25.52 64.58,25.52 23.9,0 43.83,-5.01 59.68,-15.04 15.97,-10.02 29.84,-26.22 41.74,-48.6l62.25 34.85c-18.19,32.64 -40.69,56.77 -67.62,72.74 -26.81,15.97 -58.4,23.9 -94.53,23.9 -51.99,0 -93.26,-15.86 -124.04,-47.45 -30.66,-31.71 -46.04,-73.9 -46.04,-126.71 0,-50.82 15.86,-92.44 47.68,-125.19 31.71,-32.64 72.51,-48.96 122.4,-48.96 52.1,0 92.78,14.92 121.93,44.76 29.14,29.73 43.71,71.58 43.71,125.2l0 13.99zm-76.93 -49.66c-2.91,-23.2 -11.77,-40.92 -26.58,-53.05 -14.8,-12.23 -35.08,-18.3 -60.73,-18.3 -24.36,0 -43.95,5.95 -58.75,17.72 -14.68,11.89 -25.06,29.73 -31,53.62l177.06 0zm452.52 -90.22l20.87 0c45.11,0 75.18,-4.89 90.22,-14.69 15.04,-9.79 22.5,-27.04 22.5,-51.87 0,-26.57 -8.05,-45.34 -24.14,-56.3 -15.96,-10.85 -45.57,-16.32 -88.59,-16.32l-20.87 0 0 139.18zm-4.89 66.44l0 224.51 -76.23 0 0 -500.08 122.86 0c36.49,0 63.3,1.98 80.55,5.94 17.14,3.96 32.17,10.61 45,19.7 15.73,11.55 27.98,27.28 36.95,46.86 8.86,19.7 13.29,41.38 13.29,65.05 0,23.78 -4.43,45.58 -13.29,65.63 -8.97,20.04 -21.21,35.78 -36.95,47.09 -12.83,9.09 -27.86,15.62 -45,19.46 -17.25,3.85 -44.06,5.83 -80.55,5.83l-15.97 0 -30.66 0zm576.67 73.44l-258.78 0c1.87,30.3 10.84,53.97 27.04,70.99 16.09,17.01 37.65,25.52 64.58,25.52 23.9,0 43.83,-5.01 59.68,-15.04 15.97,-10.02 29.84,-26.22 41.74,-48.6l62.25 34.85c-18.19,32.64 -40.69,56.77 -67.62,72.74 -26.81,15.97 -58.4,23.9 -94.53,23.9 -51.99,0 -93.26,-15.86 -124.04,-47.45 -30.66,-31.71 -46.04,-73.9 -46.04,-126.71 0,-50.82 15.86,-92.44 47.68,-125.19 31.71,-32.64 72.51,-48.96 122.4,-48.96 52.1,0 92.78,14.92 121.93,44.76 29.14,29.73 43.71,71.58 43.71,125.2l0 13.99zm-76.93 -49.66c-2.91,-23.2 -11.77,-40.92 -26.58,-53.05 -14.8,-12.23 -35.08,-18.3 -60.73,-18.3 -24.36,0 -43.95,5.95 -58.75,17.72 -14.68,11.89 -25.06,29.73 -31,53.62l177.06 0zm116.92 141.98l61.55 -33.57c4.54,16.2 12.93,28.56 25.29,36.95 12.24,8.51 28.09,12.71 47.32,12.71 16.68,0 29.73,-3.85 39.17,-11.42 9.44,-7.69 14.11,-18.07 14.11,-31.36 0,-17.48 -16.79,-32.52 -50.48,-45.11 -11.3,-4.08 -20.17,-7.46 -26.22,-10.26 -34.62,-14.34 -58.86,-28.91 -72.63,-43.71 -13.75,-14.69 -20.63,-32.75 -20.63,-53.85 0,-28.92 11.31,-52.34 33.92,-70.41 22.73,-17.95 52.69,-26.93 89.99,-26.93 25.06,0 46.51,4.66 64.35,13.88 17.84,9.2 30.89,22.26 39.05,39.4l-52.57 36.25c-3.85,-10.25 -10.61,-18.42 -20.28,-24.47 -9.67,-6.06 -20.87,-9.1 -33.57,-9.1 -14.11,0 -25.42,3.39 -33.93,10.03 -8.5,6.76 -12.82,15.73 -12.82,26.93 0,16.78 19.12,32.17 57.24,46.04 12.12,4.31 21.45,7.92 27.98,10.61 29.84,11.89 51.17,25.18 64.11,40.1 12.82,14.92 19.23,33.57 19.23,55.83 0,32.41 -11.78,57.7 -35.21,76 -23.43,18.3 -55.72,27.51 -96.98,27.51 -31.59,0 -57.93,-5.94 -78.8,-17.72 -20.98,-11.89 -37.3,-29.96 -49.19,-54.32zm567.79 -104.22c0,-33.46 -7.8,-59.57 -23.42,-78.21 -15.63,-18.77 -37.42,-28.1 -65.4,-28.1 -28.09,0 -50.12,9.67 -66.1,28.91 -16.08,19.24 -24.13,46.04 -24.13,80.2 0,34.39 7.69,60.97 23.21,79.62 15.5,18.77 37.42,28.09 65.62,28.09 27.04,0 48.84,-10.02 65.39,-30.07 16.55,-20.05 24.82,-46.86 24.82,-80.43zm72.04 315.44l-74.14 0 0 -194.33c-13.17,18.54 -28.67,32.41 -46.27,41.51 -17.72,9.09 -37.89,13.64 -60.74,13.64 -45.69,0 -81.83,-15.62 -108.05,-46.98 -26.35,-31.24 -39.52,-74.14 -39.52,-128.58 0,-51.64 13.41,-93.37 40.33,-125.08 26.94,-31.83 62.02,-47.68 105.26,-47.68 26.47,0 49.07,5.48 67.85,16.55 18.76,10.95 32.52,26.81 41.14,47.45l0 -52.82 74.14 0 0 476.31zm174.15 -476.31l0 182.55c0,31.35 6.53,53.97 19.47,67.61 12.93,13.64 33.92,20.52 63.06,20.52 29.15,0 50.13,-6.89 63.07,-20.52 12.94,-13.64 19.46,-36.26 19.46,-67.61l0 -182.55 74.15 0 0 160.29c0,61.89 -12.36,106.89 -37.19,134.87 -24.83,27.98 -64.46,41.97 -118.79,41.97 -55.26,0 -95.35,-13.88 -120.18,-41.62 -24.83,-27.73 -37.19,-72.85 -37.19,-135.21l0 -160.29 74.14 0zm332.82 -139.88c0,-12.47 4.66,-23.32 13.87,-32.52 9.21,-9.1 20.17,-13.64 32.99,-13.64 13.17,0 24.25,4.42 33,13.17 8.74,8.74 13.17,19.82 13.17,33 0,13.29 -4.43,24.36 -13.29,33.33 -8.98,8.98 -19.94,13.53 -32.88,13.53 -12.82,0 -23.77,-4.66 -32.99,-13.88 -9.2,-9.21 -13.87,-20.17 -13.87,-32.99zm9.79 463.71l0 -323.83 74.14 0 0 323.83 -74.14 0zm142.8 -58.75l61.55 -33.57c4.54,16.2 12.93,28.56 25.29,36.95 12.24,8.51 28.09,12.71 47.32,12.71 16.68,0 29.73,-3.85 39.17,-11.42 9.44,-7.69 14.11,-18.07 14.11,-31.36 0,-17.48 -16.79,-32.52 -50.48,-45.11 -11.3,-4.08 -20.17,-7.46 -26.22,-10.26 -34.62,-14.34 -58.86,-28.91 -72.63,-43.71 -13.75,-14.69 -20.63,-32.75 -20.63,-53.85 0,-28.92 11.31,-52.34 33.92,-70.41 22.73,-17.95 52.69,-26.93 89.99,-26.93 25.06,0 46.51,4.66 64.35,13.88 17.84,9.2 30.89,22.26 39.05,39.4l-52.57 36.25c-3.85,-10.25 -10.61,-18.42 -20.28,-24.47 -9.67,-6.06 -20.87,-9.1 -33.57,-9.1 -14.11,0 -25.42,3.39 -33.93,10.03 -8.5,6.76 -12.82,15.73 -12.82,26.93 0,16.78 19.12,32.17 57.24,46.04 12.12,4.31 21.45,7.92 27.98,10.61 29.84,11.89 51.17,25.18 64.11,40.1 12.82,14.92 19.23,33.57 19.23,55.83 0,32.41 -11.78,57.7 -35.21,76 -23.43,18.3 -55.72,27.51 -96.98,27.51 -31.59,0 -57.93,-5.94 -78.8,-17.72 -20.98,-11.89 -37.3,-29.96 -49.19,-54.32zm639.84 58.75l-74.14 0 0 -41.85c-13.17,18.54 -28.68,32.41 -46.28,41.51 -17.72,9.09 -37.89,13.64 -60.74,13.64 -45.69,0 -81.83,-15.62 -108.05,-46.98 -26.35,-31.24 -39.52,-74.14 -39.52,-128.58 0,-51.64 13.41,-93.37 40.33,-125.08 26.94,-31.83 62.02,-47.68 105.26,-47.68 26.47,0 49.07,5.48 67.85,16.55 18.76,10.95 32.52,26.81 41.15,47.45l0 -52.82 74.14 0 0 323.83zm-72.04 -162.97c0,-33.46 -7.81,-59.57 -23.43,-78.21 -15.63,-18.77 -37.42,-28.1 -65.4,-28.1 -28.09,0 -50.12,9.67 -66.1,28.91 -16.08,19.24 -24.13,46.04 -24.13,80.2 0,34.39 7.69,60.97 23.21,79.62 15.5,18.77 37.42,28.09 65.62,28.09 26.7,0 48.37,-10.14 65.05,-30.42 16.78,-20.29 25.18,-46.98 25.18,-80.09zm137.09 104.22l61.55 -33.57c4.54,16.2 12.93,28.56 25.29,36.95 12.24,8.51 28.09,12.71 47.32,12.71 16.68,0 29.73,-3.85 39.17,-11.42 9.44,-7.69 14.11,-18.07 14.11,-31.36 0,-17.48 -16.79,-32.52 -50.48,-45.11 -11.3,-4.08 -20.17,-7.46 -26.22,-10.26 -34.62,-14.34 -58.86,-28.91 -72.63,-43.71 -13.75,-14.69 -20.63,-32.75 -20.63,-53.85 0,-28.92 11.31,-52.34 33.92,-70.41 22.73,-17.95 52.69,-26.93 89.99,-26.93 25.06,0 46.51,4.66 64.35,13.88 17.84,9.2 30.89,22.26 39.05,39.4l-52.57 36.25c-3.85,-10.25 -10.61,-18.42 -20.28,-24.47 -9.67,-6.06 -20.87,-9.1 -33.57,-9.1 -14.11,0 -25.42,3.39 -33.93,10.03 -8.5,6.76 -12.82,15.73 -12.82,26.93 0,16.78 19.12,32.17 57.24,46.04 12.12,4.31 21.45,7.92 27.98,10.61 29.84,11.89 51.17,25.18 64.11,40.1 12.82,14.92 19.23,33.57 19.23,55.83 0,32.41 -11.78,57.7 -35.21,76 -23.43,18.3 -55.72,27.51 -96.98,27.51 -31.59,0 -57.93,-5.94 -78.8,-17.72 -20.98,-11.89 -37.3,-29.96 -49.19,-54.32zm857.94 -92.32l-258.78 0c1.87,30.3 10.84,53.97 27.04,70.99 16.09,17.01 37.65,25.52 64.58,25.52 23.9,0 43.83,-5.01 59.68,-15.04 15.97,-10.02 29.84,-26.22 41.74,-48.6l62.25 34.85c-18.19,32.64 -40.69,56.77 -67.62,72.74 -26.81,15.97 -58.4,23.9 -94.53,23.9 -51.99,0 -93.26,-15.86 -124.04,-47.45 -30.66,-31.71 -46.04,-73.9 -46.04,-126.71 0,-50.82 15.86,-92.44 47.68,-125.19 31.71,-32.64 72.51,-48.96 122.4,-48.96 52.1,0 92.78,14.92 121.93,44.76 29.14,29.73 43.71,71.58 43.71,125.2l0 13.99zm-76.93 -49.66c-2.91,-23.2 -11.77,-40.92 -26.58,-53.05 -14.8,-12.23 -35.08,-18.3 -60.73,-18.3 -24.36,0 -43.95,5.95 -58.75,17.72 -14.68,11.89 -25.06,29.73 -31,53.62l177.06 0zm228.12 200.73l-74.14 0 0 -323.83 69.71 0 0 53.16c14.8,-22.62 31.59,-39.17 50.35,-49.55 18.77,-10.38 40.92,-15.5 66.45,-15.5 25.29,0 46.28,5.25 62.83,15.86 16.67,10.61 29.26,26.81 37.89,48.49 17.13,-22.38 35.31,-38.7 54.55,-48.96 19.24,-10.26 41.15,-15.39 65.75,-15.39 21.33,0 39.99,3.96 55.95,11.77 15.97,7.93 28.33,19.36 37.19,34.39 4.19,6.99 7.23,15.5 9.1,25.3 1.98,9.79 2.91,23.77 2.91,41.96l0 25.99 0 196.31 -74.15 0 0 -166.23c0,-43.49 -4.66,-72.15 -13.87,-85.92 -9.21,-13.75 -25.65,-20.63 -49.31,-20.63 -29.14,0 -49.89,9.32 -62.24,27.86 -12.47,18.53 -18.66,51.06 -18.66,97.45l0 147.46 -74.84 0 0 -166.23c0,-40.1 -4.78,-67.85 -14.45,-83.35 -9.67,-15.5 -26.47,-23.2 -50.12,-23.2 -14.57,0 -27.86,3.26 -39.87,9.91 -12.12,6.65 -21.68,15.73 -28.79,27.27 -4.54,7.58 -7.69,16.79 -9.56,27.63 -1.75,10.96 -2.68,31.13 -2.68,60.5l0 147.46zm836.39 -286.76l14.81 0c43.02,0 71.57,-5.01 85.68,-15.04 14.11,-10.02 21.21,-27.73 21.21,-53.27 0,-27.51 -7.58,-46.86 -22.73,-58.17 -15.15,-11.31 -43.25,-16.9 -84.16,-16.9l-14.81 0 0 143.38zm-4.89 62.95l0 223.81 -76.23 0 0 -500.08 113.3 0c33.23,0 58.98,2.21 77.41,6.53 18.3,4.31 33.92,11.42 46.85,21.45 15.51,12.13 27.4,27.74 35.91,46.86 8.4,19.12 12.59,39.98 12.59,62.83 0,39.99 -9.67,71.35 -29.02,94.07 -19.35,22.62 -47.91,36.26 -85.69,40.8l172.06 227.54 -91.63 0 -166.46 -223.81 -9.1 0zm601.84 223.81l-74.14 0 0 -41.85c-13.17,18.54 -28.68,32.41 -46.28,41.51 -17.72,9.09 -37.89,13.64 -60.74,13.64 -45.69,0 -81.83,-15.62 -108.05,-46.98 -26.35,-31.24 -39.52,-74.14 -39.52,-128.58 0,-51.64 13.41,-93.37 40.33,-125.08 26.94,-31.83 62.02,-47.68 105.26,-47.68 26.47,0 49.07,5.48 67.85,16.55 18.76,10.95 32.52,26.81 41.15,47.45l0 -52.82 74.14 0 0 323.83zm-72.04 -162.97c0,-33.46 -7.81,-59.57 -23.43,-78.21 -15.63,-18.77 -37.42,-28.1 -65.4,-28.1 -28.09,0 -50.12,9.67 -66.1,28.91 -16.08,19.24 -24.13,46.04 -24.13,80.2 0,34.39 7.69,60.97 23.21,79.62 15.5,18.77 37.42,28.09 65.62,28.09 26.7,0 48.37,-10.14 65.05,-30.42 16.78,-20.29 25.18,-46.98 25.18,-80.09zm167.86 -300.74c0,-12.47 4.66,-23.32 13.87,-32.52 9.21,-9.1 20.17,-13.64 32.99,-13.64 13.17,0 24.25,4.42 33,13.17 8.74,8.74 13.17,19.82 13.17,33 0,13.29 -4.43,24.36 -13.29,33.33 -8.98,8.98 -19.94,13.53 -32.88,13.53 -12.82,0 -23.77,-4.66 -32.99,-13.88 -9.2,-9.21 -13.87,-20.17 -13.87,-32.99zm9.79 463.71l0 -323.83 74.14 0 0 323.83 -74.14 0zm293.75 19.58l-169.84 -343.41 81.01 0 70.76 162.97c2.21,5.02 5.01,12.47 8.16,22.5 3.14,10.02 6.52,22.03 9.91,35.9 2.33,-9.79 5.01,-19.58 8.04,-29.25 3.03,-9.67 6.76,-19.35 11.08,-29.15l70.4 -162.97 80.55 0 -170.07 343.41zm521.29 -19.58l-74.14 0 0 -41.85c-13.17,18.54 -28.68,32.41 -46.28,41.51 -17.72,9.09 -37.89,13.64 -60.74,13.64 -45.69,0 -81.83,-15.62 -108.05,-46.98 -26.35,-31.24 -39.52,-74.14 -39.52,-128.58 0,-51.64 13.41,-93.37 40.33,-125.08 26.94,-31.83 62.02,-47.68 105.26,-47.68 26.47,0 49.07,5.48 67.85,16.55 18.76,10.95 32.52,26.81 41.15,47.45l0 -52.82 74.14 0 0 323.83zm-72.04 -162.97c0,-33.46 -7.81,-59.57 -23.43,-78.21 -15.63,-18.77 -37.42,-28.1 -65.4,-28.1 -28.09,0 -50.12,9.67 -66.1,28.91 -16.08,19.24 -24.13,46.04 -24.13,80.2 0,34.39 7.69,60.97 23.21,79.62 15.5,18.77 37.42,28.09 65.62,28.09 26.7,0 48.37,-10.14 65.05,-30.42 16.78,-20.29 25.18,-46.98 25.18,-80.09z"/>
 </g>
</svg>
