<?xml version="1.0" encoding="UTF-8"?>
<!DOCTYPE svg PUBLIC "-//W3C//DTD SVG 1.1//EN" "http://www.w3.org/Graphics/SVG/1.1/DTD/svg11.dtd">
<!-- Creator: CorelDRAW 2020 (64 Bit) -->
<svg xmlns="http://www.w3.org/2000/svg" xml:space="preserve" width="12.718mm" height="12.718mm" version="1.1" style="shape-rendering:geometricPrecision; text-rendering:geometricPrecision; image-rendering:optimizeQuality; fill-rule:evenodd; clip-rule:evenodd"
viewBox="0 0 127.88 127.88"
 xmlns:xlink="http://www.w3.org/1999/xlink"
 xmlns:xodm="http://www.corel.com/coreldraw/odm/2003">
 <defs>
  <style type="text/css">
   <![CDATA[
    .str1 {stroke:white;stroke-width:5.41;stroke-miterlimit:22.9256}
    .str0 {stroke:#373435;stroke-width:2.01;stroke-miterlimit:22.9256}
    .fil0 {fill:#6B809B}
    .fil1 {fill:gray}
    .fil2 {fill:white}
   ]]>
  </style>
 </defs>
 <g id="Camada_x0020_1">
  <metadata id="CorelCorpID_0Corel-Layer"/>
  <path class="fil0 str0" d="M32.5 76.36c-2.07,-3.59 -4.04,-7.47 -5.56,-11.38 -4.18,-10.77 -8.26,-26.12 -1.4,-36.43 0.36,-0.54 0.73,-1.11 1.18,-1.65 2.92,-3.47 7.57,-6.95 12.15,-7.58 1.84,-0.25 3.14,0.09 4.43,0.89 0.95,0.59 2.09,1.99 2.67,3 1.39,2.42 2.33,5.32 3.1,8.21 2.94,11.19 3.26,12.48 -8.04,16.85 -1.47,0.57 -3.06,0.85 -3,2.63 0.04,1.19 2.46,6.96 3.08,8.24 3.34,6.97 5.02,9.82 9.3,15.95 2.22,3.17 4.15,5.14 6.31,7.81l2.8 2.84c0.67,0.72 1.68,2.28 3.31,2.31 1.48,0.02 2.97,-1.4 3.52,-2.08 0.51,-0.62 0.73,-0.93 1.32,-1.51 1.03,-1.01 2.55,-3.16 4.47,-4.02 3.27,-1.45 6.33,0.98 8.25,2.31l4.02 3.04c0.99,0.86 2.12,1.64 3.03,2.63 1.15,1.25 2.29,2.43 3.26,3.81 3.65,5.23 -0.14,9.83 -4.14,12.52 -10.07,6.79 -20.15,3.76 -29.53,-2.23 -1.24,-0.79 -2.15,-1.47 -3.32,-2.33 -3.08,-2.26 -6.57,-5.26 -9.08,-7.87 -0.5,-0.52 -0.84,-1.03 -1.32,-1.5l-3.95 -4.52c-2.14,-2.65 -5.04,-6.83 -6.84,-9.95zm26.35 -23.35c-2.83,-1.78 -2.07,-6.5 1.49,-7.18 1.51,-0.29 3.35,0.49 4.61,1.06 2.33,1.06 3.65,1.95 5.5,3.44 2.07,1.67 1.46,1.35 2.96,3.01 2.15,2.37 4.04,6.69 4.67,10.23 0.26,1.46 0.57,4.24 0.25,5.65 -0.56,2.46 -3.33,3.7 -5.55,2.65 -4.27,-2.01 -0.28,-6.36 -5.06,-12.85 -3.55,-4.82 -6.77,-4.7 -8.87,-6.02zm53.26 -50.31l-96.33 0c-7.19,0 -13.07,5.88 -13.07,13.07l0 96.33c0,7.19 5.88,13.07 13.07,13.07l96.33 0c7.19,0 13.07,-5.88 13.07,-13.07l0 -96.33c0,-7.19 -5.88,-13.07 -13.07,-13.07zm-50.6 31.85c0.49,-0.93 1.26,-1.58 2.62,-1.89 2.25,-0.52 7.77,2.16 9.8,3.37 3.93,2.34 3.69,2.54 6.45,4.69l3.24 3.35c5.13,6.39 8.36,13.99 8.57,22.69 0.07,3.02 -0.32,5.15 -2.97,5.86 -2.77,0.74 -4.93,-1.28 -5,-3.82 -0.16,-6.14 -0.54,-8.99 -3.31,-14.5 -1.71,-3.41 -3.5,-5.18 -5.82,-7.51 -0.21,-0.21 -0.27,-0.34 -0.52,-0.57 -0.25,-0.24 -0.34,-0.25 -0.62,-0.49 -6.43,-5.53 -11.22,-4.48 -12.58,-7.51 -0.53,-1.18 -0.48,-2.5 0.13,-3.67zm5.2 -7.92c-2.4,-1.38 -2.73,-5.95 1.03,-7.14 2.15,-0.68 7.24,1.65 9.08,2.51 5.68,2.63 8.2,4.72 12.61,8.27l5.75 6.18c5.74,7.35 10.3,17.59 10.7,27.76 0.15,3.75 0.82,7.83 -2.68,8.9 -0.84,0.26 -1.85,0.21 -2.68,-0.1 -3.04,-1.14 -2.44,-4.38 -2.48,-6.57 -0.19,-8.91 -3.88,-19.2 -9.72,-25.79l-1.41 -1.57c-0.5,-0.63 -0.82,-1.01 -1.41,-1.57l-3.18 -2.77c-8.39,-6.62 -12.86,-6.52 -15.6,-8.09z"/>
  <path class="fil1 str1" d="M15.78 2.7l96.33 0c7.19,0 13.07,5.88 13.07,13.07l0 96.33c0,7.19 -5.88,13.07 -13.07,13.07l-96.33 0c-7.19,0 -13.07,-5.88 -13.07,-13.07l0 -96.33c0,-7.19 5.88,-13.07 13.07,-13.07z"/>
  <g id="_1283585366432">
   <path class="fil2" d="M38.87 19.33c-4.58,0.63 -9.23,4.11 -12.15,7.58 -0.45,0.53 -0.82,1.11 -1.18,1.65 -6.86,10.31 -2.79,25.66 1.4,36.43 1.52,3.91 3.49,7.8 5.56,11.38 1.8,3.12 4.69,7.3 6.84,9.95l3.95 4.52c0.48,0.47 0.83,0.99 1.33,1.5 2.51,2.61 6,5.61 9.08,7.87 1.17,0.86 2.08,1.53 3.32,2.33 9.37,5.99 19.46,9.02 29.53,2.23 4,-2.69 7.79,-7.29 4.14,-12.52 -0.96,-1.38 -2.11,-2.56 -3.26,-3.81 -0.91,-0.99 -2.04,-1.76 -3.03,-2.63l-4.02 -3.04c-1.92,-1.33 -4.98,-3.76 -8.24,-2.31 -1.92,0.85 -3.44,3.01 -4.47,4.02 -0.59,0.58 -0.81,0.88 -1.32,1.51 -0.56,0.68 -2.05,2.1 -3.52,2.08 -1.63,-0.03 -2.64,-1.59 -3.31,-2.31l-2.8 -2.84c-2.16,-2.67 -4.09,-4.64 -6.31,-7.81 -4.28,-6.13 -5.96,-8.98 -9.3,-15.95 -0.62,-1.29 -3.04,-7.05 -3.08,-8.24 -0.06,-1.78 1.53,-2.06 3,-2.63 11.3,-4.37 10.98,-5.66 8.04,-16.85 -0.76,-2.9 -1.7,-5.79 -3.1,-8.22 -0.58,-1.01 -1.72,-2.41 -2.67,-3 -1.29,-0.8 -2.59,-1.15 -4.43,-0.89z"/>
   <path class="fil2" d="M67.73 19.49c-3.76,1.19 -3.43,5.76 -1.03,7.14 2.73,1.57 7.21,1.47 15.6,8.09l3.18 2.78c0.58,0.57 0.9,0.94 1.41,1.57l1.41 1.57c5.84,6.59 9.54,16.89 9.72,25.79 0.05,2.19 -0.56,5.43 2.48,6.57 0.84,0.31 1.85,0.36 2.68,0.1 3.5,-1.07 2.83,-5.16 2.68,-8.9 -0.4,-10.17 -4.96,-20.41 -10.7,-27.76l-5.75 -6.18c-4.41,-3.55 -6.93,-5.64 -12.61,-8.27 -1.85,-0.85 -6.93,-3.19 -9.08,-2.51z"/>
   <path class="fil2" d="M64.12 32.67c-1.36,0.31 -2.13,0.96 -2.62,1.89 -0.61,1.17 -0.66,2.49 -0.13,3.67 1.36,3.03 6.15,1.98 12.58,7.51 0.28,0.24 0.36,0.25 0.62,0.49 0.25,0.23 0.31,0.36 0.52,0.57 2.32,2.33 4.11,4.1 5.82,7.51 2.77,5.52 3.15,8.36 3.31,14.5 0.07,2.54 2.23,4.55 5,3.82 2.65,-0.71 3.05,-2.84 2.97,-5.86 -0.21,-8.69 -3.44,-16.3 -8.57,-22.69l-3.24 -3.35c-2.76,-2.15 -2.52,-2.35 -6.45,-4.69 -2.03,-1.21 -7.55,-3.88 -9.8,-3.37z"/>
   <path class="fil2" d="M60.34 45.83c-3.56,0.68 -4.32,5.4 -1.49,7.18 2.1,1.32 5.31,1.2 8.87,6.02 4.79,6.49 0.79,10.84 5.06,12.85 2.22,1.05 5,-0.19 5.55,-2.65 0.32,-1.41 0.01,-4.19 -0.25,-5.65 -0.63,-3.54 -2.52,-7.87 -4.67,-10.23 -1.51,-1.66 -0.89,-1.34 -2.96,-3.01 -1.85,-1.49 -3.17,-2.38 -5.5,-3.44 -1.26,-0.57 -3.1,-1.35 -4.61,-1.06z"/>
  </g>
 </g>
</svg>
