<?xml version="1.0" encoding="UTF-8"?>
<!DOCTYPE svg PUBLIC "-//W3C//DTD SVG 1.1//EN" "http://www.w3.org/Graphics/SVG/1.1/DTD/svg11.dtd">
<!-- Creator: CorelDRAW 2020 (64 Bit) -->
<svg xmlns="http://www.w3.org/2000/svg" xml:space="preserve" width="12.1708mm" height="12.1708mm" version="1.1" style="shape-rendering:geometricPrecision; text-rendering:geometricPrecision; image-rendering:optimizeQuality; fill-rule:evenodd; clip-rule:evenodd"
viewBox="0 0 12.9 12.9"
 xmlns:xlink="http://www.w3.org/1999/xlink"
 xmlns:xodm="http://www.corel.com/coreldraw/odm/2003">
 <defs>
  <style type="text/css">
   <![CDATA[
    .fil0 {fill:#009933}
    .fil1 {fill:white}
   ]]>
  </style>
 </defs>
 <g id="Camada_x0020_1">
  <metadata id="CorelCorpID_0Corel-Layer"/>
  <path class="fil0" d="M-0 6.45c0,-3.56 2.89,-6.45 6.45,-6.45 3.56,0 6.45,2.89 6.45,6.45 0,3.56 -2.89,6.45 -6.45,6.45 -1.1,0 -2.12,-0.29 -3.03,-0.77l-3.08 0.76c-0.02,0.01 -0.04,0.01 -0.07,0.01 -0.16,0 -0.28,-0.13 -0.28,-0.28 0,-0.03 0,-0.05 0.01,-0.07l0.83 -2.95c-0.52,-0.93 -0.84,-2 -0.84,-3.14z"/>
  <path class="fil1" d="M3.46 3.38c0.21,-0.23 0.47,-0.29 0.65,-0.29l0 0c0.11,0 0.23,0 0.33,0.01 0,0 0.13,-0.02 0.28,0.05 0.15,0.07 0.26,0.21 0.34,0.4 0.07,0.16 0.19,0.45 0.29,0.7 0.05,0.13 0.1,0.24 0.14,0.34 0.04,0.09 0.07,0.17 0.07,0.16 0.06,0.12 0.11,0.34 0.01,0.54 -0.05,0.1 -0.1,0.21 -0.2,0.33 -0.07,0.09 -0.16,0.2 -0.26,0.3 -0.01,0.01 -0.01,0 -0.01,0.01 0.1,0.16 0.41,0.65 0.85,1.04 0.3,0.26 0.57,0.43 0.79,0.55 0.22,0.11 0.36,0.17 0.48,0.22 0.04,0.02 0.03,0.01 0.03,0.02 0.1,-0.11 0.42,-0.49 0.49,-0.6 0.08,-0.12 0.23,-0.23 0.37,-0.24 0.14,-0.02 0.24,0.03 0.33,0.06 0.13,0.05 0.34,0.15 0.59,0.27 0.24,0.12 0.49,0.24 0.57,0.28 0.16,0.08 0.3,0.08 0.43,0.3 0.06,0.1 0.06,0.15 0.06,0.22 0.01,0.07 0,0.14 -0,0.22 -0.01,0.16 -0.05,0.36 -0.13,0.58 -0.11,0.3 -0.35,0.5 -0.6,0.66 -0.25,0.16 -0.51,0.27 -0.74,0.3 -0.31,0.05 -0.72,0.07 -1.17,-0.07 -0.24,-0.08 -0.56,-0.18 -0.97,-0.35 -0.88,-0.38 -1.59,-0.99 -2.1,-1.52 -0.25,-0.27 -0.45,-0.51 -0.6,-0.7 -0.14,-0.19 -0.25,-0.34 -0.24,-0.33 -0.08,-0.1 -0.73,-0.92 -0.73,-1.86 0,-0.9 0.53,-1.42 0.65,-1.56z"/>
  <path class="fil1" d="M0.56 6.45c0,-3.26 2.63,-5.89 5.89,-5.89 3.26,0 5.89,2.63 5.89,5.89 0,3.26 -2.63,5.89 -5.89,5.89 -1.04,0 -2.02,-0.27 -2.87,-0.75 -0.04,-0.02 -0.09,-0.04 -0.14,-0.04 -0.02,0 -0.05,0 -0.07,0.01l-2.69 0.67 0.72 -2.58c0.01,-0.03 0.01,-0.05 0.01,-0.08 0,-0.05 -0.01,-0.1 -0.04,-0.14 -0.52,-0.88 -0.81,-1.89 -0.81,-2.99zm-0.56 0c0,1.14 0.31,2.21 0.84,3.14l-0.83 2.95c-0.01,0.02 -0.01,0.05 -0.01,0.07 0,0.16 0.13,0.28 0.28,0.28 0.02,0 0.05,-0 0.07,-0.01l3.08 -0.76c0.9,0.48 1.93,0.77 3.03,0.77 3.56,0 6.45,-2.89 6.45,-6.45 0,-3.56 -2.89,-6.45 -6.45,-6.45 -3.56,0 -6.45,2.89 -6.45,6.45z"/>
 </g>
</svg>
